<?xml version="1.0" encoding="utf-8"?>
<!-- Generator: Adobe Illustrator 27.5.0, SVG Export Plug-In . SVG Version: 6.00 Build 0)  -->
<svg version="1.1" id="Layer_1" xmlns="http://www.w3.org/2000/svg" xmlns:xlink="http://www.w3.org/1999/xlink" x="0px" y="0px"
	 viewBox="0 0 288.814 358.114" style="enable-background:new 0 0 288.814 358.114;" xml:space="preserve">
<g>
	<g>
		<path style="fill:#F08D56;" d="M51.84,158.473c0,0-7.931,11.687-1.043,27.34c-8.765,8.348-10.644,16.696-5.844,25.67
			c-9.183,12.522-35.384,47.689,10.635,90.267c0,0-2.581-3.871-2.581-11.612c9.892,9.462,9.892,12.903,25.805,18.064
			c-6.021-9.032-3.871-10.752-3.871-10.752s0.538,4.408,26.343,13.01c15.806,3.548,42.901-2.688,56.234-16.021
			c-1.29,8.602-6.881,11.612-6.881,11.612s12.903-3.011,18.924-12.042c3.871,7.311,0.86,10.322,0.86,10.322
			s38.278-10.322,48.17-23.655c0,0,0,7.742-3.441,10.752c9.892-3.871,12.473-10.322,12.473-10.322s16.773,3.871,18.924,14.623
			c15.053-6.021,20.214-18.494,15.913-32.687c7.311,3.441,6.451-22.795-1.29-30.966c12.042,2.15,18.924,21.504,17.633,31.826
			c10.752-14.193,5.591-35.697-15.913-51.18c-21.504-15.483-36.987-15.913-36.557-45.159c14.193-27.095,11.397-74.835-10.86-100.963
			L51.84,158.473z"/>
		<path style="fill:#BC5626;" d="M110.958,311.662c-3.543,0-6.838-0.317-9.727-0.965c-21.162-7.052-25.447-11.331-26.312-12.722
			c-0.27,0.828-0.359,3.41,4.095,10.092c0.057,0.086,0.054,0.199-0.009,0.281c-0.062,0.081-0.168,0.115-0.268,0.084
			c-12.354-4.007-15.208-7.03-20.39-12.516c-1.433-1.518-3.046-3.227-5.092-5.204c0.122,7.188,2.51,10.867,2.535,10.904
			c0.068,0.102,0.049,0.24-0.044,0.319c-0.094,0.081-0.232,0.076-0.322-0.007c-19.627-18.16-28.417-37.124-26.125-56.364
			c1.871-15.7,10.614-27.621,15.312-34.026l0.057-0.077c-4.74-8.979-2.829-17.39,5.839-25.707
			c-3.51-8.081-3.032-15.078-2.007-19.536c1.12-4.867,3.059-7.761,3.14-7.882c0.021-0.031,0.049-0.057,0.082-0.075L215.354,66.39
			c0.1-0.058,0.228-0.035,0.303,0.054c10.51,12.338,17.312,30.185,19.156,50.254c1.745,19.008-1.258,37.566-8.239,50.927
			c-0.313,22.328,8.833,27.79,22.671,36.057c4.139,2.472,8.829,5.274,13.787,8.844c11.938,8.596,19.432,19.447,21.102,30.556
			c1.164,7.743-0.613,14.994-5.138,20.968c-0.066,0.086-0.184,0.119-0.284,0.078c-0.102-0.042-0.163-0.146-0.15-0.255
			c1.198-9.583-4.902-28.606-16.727-31.41c5.822,6.993,7.675,24.873,4.065,29.865c-0.813,1.124-1.862,1.505-3.067,1.124
			c4.224,14.62-1.805,26.747-16.196,32.505c-0.068,0.026-0.143,0.022-0.206-0.012c-0.063-0.034-0.108-0.095-0.122-0.166
			c-1.971-9.858-16.687-13.912-18.548-14.386c-0.532,1.115-3.606,6.775-12.522,10.263c-0.107,0.044-0.233,0.001-0.296-0.099
			c-0.061-0.1-0.041-0.231,0.047-0.309c2.703-2.363,3.23-7.837,3.333-9.828c-4.344,5.376-13.569,10.86-27.438,16.312
			c-10.695,4.203-20.305,6.81-20.4,6.835c-0.105,0.027-0.217-0.017-0.273-0.112c-0.055-0.095-0.04-0.215,0.037-0.293
			c0.028-0.029,2.73-2.897-0.716-9.679c-6.098,8.748-18.712,11.776-18.841,11.806c-0.119,0.029-0.239-0.037-0.281-0.15
			c-0.044-0.114,0.005-0.242,0.111-0.299c0.054-0.029,5.184-2.888,6.636-10.704C146.094,305.753,126.251,311.661,110.958,311.662z
			 M74.942,297.207c0.031,0,0.062,0.006,0.092,0.018c0.082,0.033,0.138,0.108,0.149,0.195c0.007,0.035,1.121,4.457,26.179,12.809
			c15.418,3.463,42.652-2.627,55.986-15.961c0.074-0.074,0.188-0.092,0.28-0.046c0.094,0.047,0.147,0.15,0.131,0.253
			c-0.928,6.188-4.104,9.549-5.844,10.966c3.441-1.048,12.68-4.421,17.445-11.567c0.047-0.07,0.135-0.108,0.214-0.108
			c0.085,0.005,0.162,0.054,0.202,0.129c2.998,5.662,1.954,8.801,1.247,10.016c5.131-1.451,38.359-11.229,47.374-23.379
			c0.064-0.083,0.174-0.117,0.271-0.085c0.099,0.033,0.167,0.126,0.167,0.23c0,0.295-0.034,6.693-2.733,10.099
			c8.818-3.814,11.273-9.698,11.297-9.759c0.045-0.111,0.159-0.177,0.28-0.146c0.168,0.038,16.655,3.959,19.046,14.525
			c14.096-5.759,19.89-17.808,15.504-32.284c-0.027-0.092,0.001-0.191,0.074-0.254c0.072-0.064,0.173-0.077,0.262-0.036
			c1.195,0.564,2.158,0.308,2.944-0.781c3.308-4.572,1.986-22.937-4.514-29.799c-0.072-0.076-0.087-0.189-0.037-0.282
			c0.05-0.091,0.155-0.142,0.256-0.123c12.191,2.177,18.691,21.021,17.919,31.206c4.058-5.727,5.621-12.585,4.523-19.89
			c-1.65-10.978-9.075-21.715-20.907-30.234c-4.94-3.557-9.621-6.354-13.752-8.822c-13.994-8.36-23.239-13.882-22.906-36.538
			c0.001-0.038,0.01-0.075,0.027-0.109c6.959-13.284,9.952-31.767,8.213-50.709c-1.826-19.887-8.542-37.575-18.913-49.831
			L52.011,158.655c-0.254,0.392-2.022,3.237-3.044,7.694c-1.011,4.41-1.475,11.351,2.051,19.366c0.042,0.094,0.02,0.203-0.054,0.273
			c-8.636,8.226-10.533,16.528-5.797,25.38c0.043,0.082,0.037,0.183-0.019,0.258l-0.146,0.2
			c-4.671,6.368-13.366,18.223-15.222,33.796c-2.232,18.734,6.153,37.224,24.928,54.975c-0.778-1.729-1.943-5.197-1.943-10.458
			c0-0.098,0.058-0.185,0.147-0.223c0.091-0.039,0.192-0.019,0.263,0.047c2.254,2.156,3.992,3.996,5.525,5.62
			c5.033,5.33,7.846,8.309,19.527,12.172c-5.506-8.462-3.671-10.308-3.438-10.495C74.834,297.225,74.888,297.207,74.942,297.207z"/>
	</g>
	<g>
		<path style="opacity:0.55;fill:#CB5530;" d="M243.592,217.921c22.69,14.587,18.801,34.36,18.801,34.36
			s-4.214-11.994-16.207-18.152c-11.994-6.159-20.746-20.097-21.718-36.953c-5.835,9.4-0.648,23.015-0.648,23.015
			s-7.131-11.669-7.131-29.498c-5.186,17.828-1.945,34.36,11.669,42.788c13.614,8.428,24.96,31.118,23.015,43.76
			c-2.917-11.021-12.966-16.207-22.042-21.718c-9.076-5.51-16.856-6.159-27.229-26.256c-13.29-27.553,2.269-61.913,2.269-61.913
			s-6.159,27.877-2.269,43.112c-1.297-14.587,0.324-32.091,11.345-57.699c11.021-25.608,11.021-52.188,11.021-52.188
			c3.566,15.883-1.297,40.519-8.952,55.029c13.415-21.146,16.732-38.822,13.49-59.892c1.159,1.61,2.24,3.826,3.23,6.335
			c-3.046-13.336-8.586-25.853-16.762-35.451L51.84,158.473c0,0-2.405,3.553-3.415,9.358c1.552-2.214,3.236-3.88,4.698-3.636
			c3.467,0.578,4.436,10.615-3.514,18.529c0.335,1.011,0.726,2.041,1.187,3.09c-3.731,3.553-6.202,7.107-7.454,10.709
			c1.778-2.396,4.021-4.72,6.764-6.513c8.716-5.699,10.462-14.451,10.462-14.451s-0.337,18.99-16.72,33.544
			c0.321,0.79,0.677,1.583,1.104,2.382c-3.19,4.35-8.431,11.435-11.988,20.611c2.537-5.052,5.696-9.755,9.431-12.584
			c11.063-8.381,19.339-20.707,21.57-30.468c1.561,8.342-4.473,20.076-10.843,28.122c10.393-11.734,13.745-18.103,13.745-18.103
			s-3.017,13.075-11.398,21.791c-8.381,8.716-12.312,22.797-3.474,37.883c-0.214-19.109,3.809-36.542,20.906-51.293
			c0,0-19.109,24.473-13.41,47.605c0,0-0.67-22.797,22.126-41.571c0,0-9.387,17.768-2.347,35.871
			c0-16.092,6.705-34.195,6.705-34.195s1.341,36.877-6.034,40.565c-4.693,1.676-7.375-7.04-7.711-10.728
			c-1.341,9.722-4.463,15.496-9.942,15.794c-5.479,0.298-19.224-2.72-23.247,2.309c-4.023,5.029-9.387-8.046-9.722-10.728
			c-0.021-0.17-0.064-0.232-0.126-0.202c0.18,14.354,6.611,31.285,26.393,49.588c0,0-2.581-3.871-2.581-11.612
			c9.892,9.462,9.892,12.903,25.805,18.064c-6.021-9.032-3.871-10.752-3.871-10.752s0.538,4.408,26.343,13.01
			c15.806,3.548,42.901-2.688,56.234-16.021c-1.29,8.602-6.881,11.612-6.881,11.612s12.903-3.011,18.924-12.042
			c3.871,7.311,0.86,10.322,0.86,10.322s38.278-10.322,48.17-23.655c0,0,0,7.742-3.441,10.752
			c9.892-3.871,12.472-10.322,12.472-10.322s16.773,3.871,18.924,14.623c15.053-6.021,20.214-18.494,15.913-32.686
			c7.311,3.441,6.451-22.795-1.29-30.966c12.042,2.15,18.924,21.504,17.633,31.826c0.211-0.278,0.405-0.564,0.603-0.848
			C286.334,228.614,256.457,218.862,243.592,217.921z"/>
	</g>
	<g>
		<path style="opacity:0.55;fill:#CB5530;" d="M204.775,291.163c-3.801-5.787-7.529-11.622-10.972-17.63
			c-5.442-9.496-10.174-19.469-13.154-30.028c-2.87-10.171-4.405-21.248-2.844-31.774c0.693-4.671,2.107-9.194,4.074-13.482
			c2.195-4.787,5.088-9.103,7.893-13.538c3.055-4.83,5.768-9.97,7.291-15.505c1.425-5.177,1.594-10.589,0.316-15.797
			c-5.907,2.014-12.535,0.087-17.254-3.845c-1.987,6.795-4.196,13.572-7.589,19.812c-6.749,12.411-18.007,21.833-30.482,28.173
			c-6.368,3.236-13.291,6.122-20.486,6.628c-6.653,0.468-13.206-1.082-19.694-2.338c-0.454,11.329,1.192,22.689-1.449,33.861
			c-2.093,8.856-6.204,16.976-10.19,25.095c-1.977,4.028-3.902,8.066-6.002,12.034c-2.045,3.865-4.134,7.72-5.794,11.771
			c-1.594,3.887-2.751,7.962-3.041,12.167c-0.032,0.467-0.047,0.932-0.056,1.397c1.216,1.564,6.131,5.693,25.941,12.296
			c15.806,3.548,42.901-2.688,56.234-16.021c-1.29,8.602-6.881,11.612-6.881,11.612s12.903-3.011,18.924-12.042
			c3.871,7.311,0.86,10.322,0.86,10.322S190.004,299.049,204.775,291.163z"/>
		<path style="opacity:0.55;fill:#CB5530;" d="M76.656,307.476c0.688,0.239,1.399,0.48,2.157,0.725
			c-1.571-2.357-2.577-4.206-3.219-5.667C75.813,304.204,76.17,305.853,76.656,307.476z"/>
	</g>
	<g>
		<path style="fill:#BC5626;" d="M258.584,278.222c-0.162-2.866-0.576-5.714-1.219-8.511c-1.265-5.501-3.428-10.793-6.417-15.584
			c-1.5-2.404-3.203-4.685-5.096-6.794c-2.193-2.443-4.63-4.648-6.874-7.042c-4.07-4.342-7.384-9.332-9.852-14.744
			c-2.727-5.982-4.348-12.466-4.761-19.027c-0.009-0.147-0.256,0.071-0.253,0.17c0.32,9.039,2.997,18.002,7.648,25.771
			c-1.941-2.117-3.81-4.289-5.47-6.67c-2.633-3.777-4.833-7.855-6.536-12.133c-1.882-4.728-3.265-9.762-3.31-14.88
			c-0.048-5.356,1.661-10.56,3.359-15.579c1.889-5.584,4.204-11.005,6.624-16.376c0.11-0.245-0.193-0.067-0.255,0.046
			c-2.613,4.765-4.746,9.77-6.59,14.879c-1.785,4.944-3.589,10.115-3.963,15.393c-0.371,5.236,0.804,10.469,2.554,15.376
			c1.592,4.464,3.724,8.734,6.321,12.697c2.788,4.253,6.121,8.469,10.168,11.602c0.466,0.626,0.943,1.244,1.437,1.848
			c2.051,2.509,4.378,4.756,6.651,7.059c2.11,2.138,4.09,4.384,5.819,6.845c3.263,4.645,5.714,9.855,7.259,15.315
			c0.879,3.107,1.458,6.298,1.726,9.516c0.271,3.264,0.121,6.484-0.111,9.743c-0.036,0.503,0.786-0.105,0.833-0.396
			C258.728,283.948,258.744,281.047,258.584,278.222z"/>
		<path style="fill:#BC5626;" d="M262.181,262.629c-1.5-3.208-3.54-6.181-5.764-8.928c-2.255-2.786-4.82-5.339-7.621-7.576
			c-1.6-1.278-3.286-2.441-5.03-3.512c-0.123-0.076-0.388,0.245-0.278,0.32c5.865,4.014,11.044,9.131,15.034,15.017
			c1.126,1.661,2.146,3.384,3.16,5.114C261.818,263.3,262.275,262.831,262.181,262.629z"/>
		<path style="fill:#BC5626;" d="M218.264,242.087c-5.863-4.834-10.118-11.132-12.688-18.264c-2.597-7.205-3.56-14.964-3.307-22.599
			c0.316-9.517,2.467-18.884,4.845-28.065c2.442-9.426,5.145-18.776,6.894-28.365c1.79-9.818,2.814-19.785,2.922-29.767
			c0.013-1.222,0.014-2.443,0.004-3.665c-0.001-0.179-0.308,0.084-0.311,0.207c-0.221,10.175-1.167,20.347-2.889,30.378
			c-1.672,9.737-4.291,19.237-6.836,28.772c-2.514,9.419-4.833,18.957-5.48,28.715c-0.505,7.613,0.188,15.361,2.41,22.676
			c2.161,7.111,5.913,14.081,11.576,19.015c0.701,0.611,1.445,1.176,2.198,1.721C217.917,243.074,218.561,242.331,218.264,242.087z"
			/>
		<path style="fill:#BC5626;" d="M221.721,251.833c-6.737-4.892-12.471-10.925-16.647-18.153
			c-4.141-7.169-6.767-15.207-7.563-23.452c-0.442-4.574-0.349-9.238,0.399-13.776c0.023-0.142-0.253,0.061-0.27,0.152
			c-1.521,8.205-1.086,16.604,1.174,24.634c2.27,8.066,6.293,15.625,11.765,21.975c3.072,3.565,6.589,6.762,10.59,9.255
			C221.434,252.633,221.967,252.012,221.721,251.833z"/>
		<path style="fill:#BC5626;" d="M205.572,149.961c-1.83,7.546-4.596,14.861-8.184,21.746c-3.591,6.891-8.047,13.332-13.201,19.145
			c-2.892,3.261-6.006,6.328-9.271,9.215c-0.302,0.267-0.264,0.811,0.179,0.452c6.122-4.974,11.44-10.89,15.993-17.321
			c4.536-6.407,8.266-13.402,11.058-20.738c1.568-4.119,2.824-8.347,3.775-12.649C205.98,149.546,205.607,149.819,205.572,149.961z"
			/>
		<path style="fill:#BC5626;" d="M190.756,250.673c-1.896-2.082-3.598-4.357-4.907-6.856c-1.295-2.472-2.242-5.128-2.873-7.844
			c-1.422-6.114-1.135-12.508-0.001-18.644c0.676-3.659,1.623-7.256,2.722-10.809c0.069-0.222-0.265,0.017-0.304,0.134
			c-3.926,11.845-6.388,25.212-0.76,36.956c1.377,2.874,3.187,5.561,5.611,7.652C190.458,251.447,190.947,250.883,190.756,250.673z"
			/>
		<path style="fill:#BC5626;" d="M188.627,229.992c0.027-8.415,1.74-16.727,3.999-24.801c1.302-4.655,2.754-9.263,4.229-13.865
			c0.069-0.216-0.259,0.018-0.298,0.132c-2.813,8.284-5.644,16.598-7.281,25.211c-1.52,7.998-2.021,16.259-0.583,24.308
			c0.789,4.415,2.136,8.702,4.268,12.657c0.172,0.32,0.785-0.283,0.651-0.557C190.102,245.875,188.601,237.972,188.627,229.992z"/>
		<path style="fill:#BC5626;" d="M180.816,246.368c-5.935-7.805-8.209-18.005-6.103-27.586c0.587-2.672,1.521-5.266,2.79-7.691
			c0.09-0.171-0.139-0.047-0.185,0.037c-4.847,8.727-5.178,19.592-1.264,28.734c1.093,2.553,2.524,4.902,4.304,7.032
			C180.507,247.072,180.971,246.572,180.816,246.368z"/>
		<path style="fill:#BC5626;" d="M58.579,170.095c-0.715,3.022-1.975,5.877-3.48,8.584c-1.446,2.6-3.232,4.996-4.659,7.604
			c-0.172,0.314,0.219,0.246,0.352,0.081c1.951-2.409,3.584-5.145,5.038-7.877c1.438-2.702,2.58-5.553,3.162-8.566
			C59.053,169.606,58.618,169.927,58.579,170.095z"/>
		<path style="fill:#BC5626;" d="M61.329,181.881c-1.21,9.984-6.902,18.73-13.046,26.404c-1.787,2.233-3.634,4.416-5.419,6.651
			c-0.323,0.404-0.005,0.692,0.349,0.303c6.868-7.544,13.619-15.902,16.921-25.694c0.877-2.6,1.43-5.262,1.708-7.99
			C61.871,181.265,61.354,181.674,61.329,181.881z"/>
		<path style="fill:#BC5626;" d="M65.825,209.972c-4.811,4.809-8.54,10.59-11.044,16.911c-2.502,6.316-3.782,13.113-3.706,19.908
			c0.043,3.85,0.556,7.676,1.529,11.402c0.09,0.344,0.776-0.268,0.697-0.595c-1.566-6.47-1.838-13.253-0.816-19.829
			c1.02-6.566,3.287-12.92,6.68-18.635c1.917-3.229,4.198-6.245,6.792-8.96C66.11,210.015,66.028,209.769,65.825,209.972z"/>
		<path style="fill:#BC5626;" d="M51.997,258.734c-4.646-6.923-5.047-15.401-3.035-23.298c0.615-2.413,1.432-4.768,2.364-7.076
			c0.081-0.202-0.165-0.065-0.21,0.04c-3.313,7.809-5.392,16.602-2.69,24.916c0.695,2.139,1.711,4.122,3.091,5.899
			C51.65,259.385,52.112,258.905,51.997,258.734z"/>
		<path style="fill:#BC5626;" d="M82.995,209.941c-3.119,6.774-7.495,12.899-11.431,19.205c-3.846,6.162-7.352,12.659-8.933,19.809
			c-0.857,3.878-1.135,7.917-0.341,11.828c0.068,0.335,0.741-0.245,0.706-0.515c-0.466-3.595-0.375-7.215,0.324-10.773
			c0.69-3.512,1.891-6.904,3.369-10.158c2.975-6.55,7.113-12.463,10.853-18.582c2.141-3.503,4.099-7.083,5.713-10.861
			C83.361,209.647,83.054,209.813,82.995,209.941z"/>
		<path style="fill:#BC5626;" d="M80.448,217.923c-4.905,9.439-9.599,19.74-8.242,30.662c0.358,2.879,1.115,5.713,2.492,8.275
			c0.199,0.37,0.873-0.305,0.732-0.622c-2.082-4.702-2.858-9.766-2.453-14.884c0.418-5.27,2.021-10.354,4.018-15.222
			c1.146-2.794,2.413-5.541,3.729-8.258C80.848,217.618,80.516,217.793,80.448,217.923z"/>
		<path style="fill:#BC5626;" d="M96.559,225.461c-0.296-2.393-0.789-4.761-1.512-7.062c-0.047-0.15-0.367,0.154-0.331,0.293
			c2.154,8.305,1.976,17.201-0.778,25.35c-0.769,2.275-1.735,4.482-2.797,6.635c-0.218,0.443,0.363,0.274,0.51,0.022
			C96.001,243.256,97.614,233.979,96.559,225.461z"/>
		<path style="fill:#BC5626;" d="M99.264,226.689c-0.062-2.124-0.269-4.232-0.643-6.324c-0.019-0.107-0.264,0.112-0.256,0.2
			c0.703,7.601,0.29,15.226-1.816,22.589c-0.597,2.087-1.308,4.143-2.117,6.158c-0.21,0.523,0.452,0.234,0.581-0.067
			C98.054,242.182,99.488,234.37,99.264,226.689z"/>
		<path style="fill:#BC5626;" d="M108.371,221.612c-0.017-0.196-0.331,0.09-0.328,0.217c0.167,7.638-0.3,15.461-3.682,22.449
			c-0.891,1.841-1.99,3.596-3.242,5.213c-0.35,0.453,0.018,0.799,0.399,0.347c4.93-5.856,6.815-13.676,7.073-21.178
			C108.671,226.304,108.579,223.96,108.371,221.612z"/>
		<path style="fill:#BC5626;" d="M225.815,91.969c-1.365-6.053-3.454-11.887-6.178-17.458c-0.07-0.144-0.378,0.157-0.32,0.284
			c4.583,9.898,7.162,20.751,7.745,31.632c0.584,10.909-0.868,21.929-4.326,32.296c-1.949,5.844-4.55,11.476-7.699,16.771
			c-0.291,0.49,0.258,0.466,0.477,0.116c5.838-9.326,9.584-19.907,11.306-30.758C228.551,113.952,228.243,102.737,225.815,91.969z"
			/>
	</g>
	<g>
		<path style="fill:#B4715A;" d="M180.238,155.432c-0.153-2.5-0.389-5.006-0.295-7.494c0.097-2.532,0.436-5.031,1.017-7.433
			c0.582-2.406,1.421-4.698,2.307-6.949c0.456-1.16,0.984-2.254,1.626-3.28c0.526-0.841,1.258-1.477,1.642-2.44
			c0.107-0.269-0.094-0.628-0.347-0.67c-1.313-0.217-2.473,0.158-3.479,0.875c0.016-0.026,0.031-0.053,0.046-0.079
			c0.063-0.134,0.114-0.274,0.18-0.406c1.944-3.892,5.18-7.12,9.213-7.718c1.721-0.255,3.518-0.048,5.17,0.826
			c1.521,0.805,2.832,2.097,3.895,3.6c1.117,1.579,1.99,3.36,2.708,5.198c0.75,1.919,1.388,3.923,1.794,5.951
			c1.001,4.99,0.696,10.23-0.669,14.88c-1.411,4.805-4.06,8.907-7.536,11.887c-1.615,1.384-3.377,2.562-5.256,3.448
			c-1.802,0.849-3.785,1.497-5.805,1.395c-1.918-0.097-3.817-0.947-5.077-2.795c-0.473-0.694-0.863-1.47-1.195-2.285
			C180.437,159.81,180.372,157.618,180.238,155.432z"/>
		<path style="fill:#FDD4B5;" d="M183.563,165.46c1.744,1.146,3.86,0.974,5.65,0.504c1.844-0.484,3.588-1.353,5.214-2.395
			c3.683-2.359,6.758-5.862,8.697-10.206c1.848-4.141,2.673-9.006,2.398-13.818c-0.237-4.147-1.392-8.336-3.19-12.066
			c-1.581-3.279-3.959-6.327-7.249-6.983c-3.989-0.796-7.726,1.713-10.075,5.016c-0.007,0.01-0.014,0.022-0.021,0.032
			c0.057,0.078,0.077,0.17,0.011,0.266c-0.772,1.133-1.461,2.333-2.085,3.579c-0.167,0.414-0.319,0.835-0.462,1.26
			c-0.202,0.379-0.388,0.77-0.563,1.168c-0.742,1.471-1.319,3.064-1.649,4.748c-1.318,5.024-1.73,10.459-1.3,15.811
			c0.214,2.657,0.678,5.293,1.483,7.848C181.049,162.208,181.877,164.352,183.563,165.46z"/>
		<path style="fill:#FDD4B5;" d="M204.504,139.556c-0.491-3.761-1.642-7.634-3.858-10.655c-2.572-3.507-6.248-6.061-10.152-5.777
			c-1.852,0.135-3.553,0.846-5.103,1.876c2.361-3.044,5.913-5.259,9.693-4.505c3.29,0.656,5.668,3.704,7.249,6.983
			c1.798,3.73,2.952,7.92,3.19,12.066c0.2,3.495-0.188,7.015-1.12,10.268C204.885,146.465,204.952,142.987,204.504,139.556z"/>
		<path style="fill:#FDD4B5;" d="M178.94,152.374c-0.43-5.353-0.019-10.787,1.3-15.812c0.33-1.684,0.908-3.277,1.649-4.748
			c0.175-0.398,0.361-0.789,0.563-1.168c0.143-0.426,0.296-0.847,0.463-1.26c0.624-1.245,1.313-2.446,2.085-3.579
			c0.066-0.096,0.047-0.188-0.011-0.266c0.007-0.01,0.014-0.022,0.021-0.032c0.48-0.675,1.021-1.314,1.608-1.902
			c-0.454,0.998-0.83,2.045-1.125,3.096c-0.746,2.656-1.164,5.797-0.239,8.611c0.184,0.559,0.796,0.354,0.879-0.101
			c0.59-3.253,2.415-6.113,5.233-7.04c2.116-0.696,4.494-0.041,6.216,1.79c2.264,2.409,3.006,6.219,3.065,9.502
			c0.063,3.501-0.652,7.123-2.494,9.799c-1.904,2.766-4.834,3.735-7.944,2.975c-0.146-0.036-0.35,0.037-0.423,0.188
			c-1.094,2.293-1.353,5.908,0.456,8.109c1.219,1.484,2.829,2.325,4.533,2.265c0.319-0.011,0.632-0.061,0.941-0.127
			c-0.42,0.313-0.849,0.612-1.287,0.893c-1.626,1.041-3.371,1.911-5.214,2.395c-1.79,0.47-3.906,0.642-5.65-0.504
			c-1.686-1.108-2.514-3.252-3.14-5.238C179.617,157.668,179.153,155.031,178.94,152.374z"/>
		<path style="fill:#B4715A;" d="M187.734,155.295c-0.275-0.615-0.475-1.245-0.484-1.881c0.04-0.233,0.089-0.465,0.153-0.691
			c0.175-0.62,0.436-1.175,0.728-1.706c-0.014-0.017-0.029-0.034-0.044-0.051c0.115-0.194,0.232-0.385,0.352-0.576
			c0.015,0.004,0.032,0.006,0.047,0.012c0.47-0.779,0.974-1.533,1.352-2.388c0.4-0.905,0.685-1.962,0.034-2.895
			c-0.588-0.843-1.362-1.52-2.005-2.308c-1.237-1.519-2.007-3.369-2.126-5.394c-0.212-3.596,1.427-6.678,3.992-8.36
			c2.356-1.545,5.462-2.082,7.862,0.19c1.275,1.208,2.282,2.863,2.967,4.568c0.649,1.615,1.079,3.401,0.827,5.116
			c-0.031,0.212-0.395,0.12-0.382-0.095c0.09-1.471-0.35-3.039-0.902-4.403c-0.61-1.508-1.427-2.943-2.473-4.119
			c-0.951-1.069-2.032-1.781-3.332-1.835c-1.385-0.057-2.726,0.462-3.888,1.203c-2.461,1.569-4.054,4.629-3.743,8.061
			c0.18,1.992,1.001,3.652,2.253,5.093c0.619,0.712,1.353,1.363,1.859,2.192c0.451,0.739,0.495,1.546,0.287,2.351
			c-0.355,1.376-1.136,2.441-1.852,3.557c0.651,0.423,1.385,0.593,2.123,0.668c0.944,0.095,1.926,0.092,2.844-0.09
			c2.051-0.407,4.143-1.893,4.639-4.338c0.023-0.112,0.225-0.064,0.208,0.052c-0.4,2.722-2.385,4.461-4.64,4.977
			c-1.05,0.24-2.201,0.237-3.285,0.099c-0.713-0.091-1.584-0.269-2.294-0.707c-0.153,0.262-0.301,0.527-0.431,0.806
			c-0.357,0.762-0.579,1.588-0.636,2.475C187.732,155.018,187.735,155.156,187.734,155.295z"/>
	</g>
	<g>
		<path style="fill:#FDD4B5;" d="M116.784,221.543c0,0,4.338,30.988-29.129,39.045c-0.62,17.353,11.776,31.815,36.153,31.195
			c24.378-0.62,44.21-16.734,62.803-36.153c-10.536-5.991-18.386-12.189-19.833-28.509c-1.446-16.321-1.033-28.923-1.033-28.923
			L116.784,221.543z"/>
		<path style="fill:#B4715A;" d="M122.309,292.045c-11.322,0-20.575-3.316-26.827-9.635c-5.507-5.564-8.373-13.317-8.069-21.83
			c0.004-0.109,0.08-0.202,0.186-0.227c17.173-4.134,24.127-14.448,26.936-22.371c3.05-8.6,2.02-16.328,2.009-16.406
			c-0.014-0.104,0.041-0.207,0.136-0.252l48.961-23.344c0.076-0.036,0.166-0.03,0.237,0.016c0.071,0.046,0.113,0.126,0.11,0.21
			c-0.004,0.126-0.396,12.777,1.032,28.894c1.477,16.665,9.8,22.685,19.712,28.319c0.064,0.037,0.109,0.102,0.119,0.176
			c0.011,0.074-0.013,0.149-0.064,0.203c-11.005,11.495-20.309,19.491-29.278,25.164c-11.314,7.157-22.336,10.775-33.693,11.064
			C123.31,292.038,122.808,292.045,122.309,292.045z M87.891,260.781c-0.251,8.306,2.563,15.86,7.935,21.288
			c6.432,6.498,16.121,9.785,27.976,9.472c25.264-0.642,45.724-18.446,62.419-35.854c-9.912-5.66-18.2-11.797-19.684-28.544
			c-1.289-14.551-1.097-26.284-1.044-28.555l-48.447,23.099c0.135,1.213,0.779,8.456-2.047,16.439
			C112.161,246.141,105.155,256.565,87.891,260.781z"/>
	</g>
	<g>
		<path style="fill:#FDD4B5;" d="M166.779,227.121c-1.446-16.321-1.033-28.923-1.033-28.923l-48.962,23.345
			c0,0,0.668,4.778-0.546,11.069c3.498,1.892,7.728,2.709,11.755,2.801c9.984,0.229,20.012-3.156,27.815-9.387
			c-2.322,13.789-1.441,24.234,0.874,38.025c-6.292,0.071-13.457,4.894-19.404,6.949c-3.103,1.072-6.294,2.427-9.545,1.971
			c-4.5-0.63-8.189-4.633-12.731-4.51c0,0,3.622,1.502,6.748,4.444s9.561,1.655,14.526-0.184c4.965-1.839,15.813-2.942,20.41-2.39
			c-5.516,6.803-20.594,18.203-41.187,13.422c-12.918-3.755-20.061-11.934-21.244-25.225c-2.019,0.789-4.209,1.485-6.599,2.06
			c-0.62,17.353,11.776,31.815,36.153,31.195c24.377-0.62,44.21-16.734,62.803-36.153
			C176.076,249.639,168.225,243.441,166.779,227.121z"/>
	</g>
	<g>
		<path style="fill:#FDD4B5;" d="M95.195,51.87c0,0-46.165,9.892-47.133,55.374c-0.968,26.128,8.387,39.676,10,48.707
			c1.613,9.032,5.161,34.837,23.547,48.385c18.386,13.548,39.353,24.192,48.707,23.225c9.354-0.968,25.16-14.838,35.805-26.128
			c10.645-11.29,19.676-25.16,18.064-51.933c-1.613-26.773-1.29-64.513-25.483-82.899C138.756,51.442,122.974,47.462,95.195,51.87z"
			/>
		<path style="fill:#B4715A;" d="M129.082,227.864c-9.46,0-28.652-9.358-47.617-23.333c-17.475-12.876-21.601-36.746-23.363-46.939
			c-0.1-0.578-0.192-1.113-0.279-1.598c-0.46-2.578-1.579-5.588-2.875-9.073c-3.299-8.875-7.819-21.031-7.128-39.685
			c0.502-23.593,13.347-37.457,24.033-44.933c11.569-8.093,23.176-10.644,23.291-10.67c0.005-0.001,0.009-0.001,0.013-0.002
			c27.367-4.342,43.439-0.614,63.691,14.777c22.12,16.811,23.813,49.44,25.174,75.659c0.132,2.546,0.26,5.027,0.405,7.419
			c1.636,27.167-7.748,41.102-18.131,52.115c-11.355,12.043-26.764,25.25-35.956,26.202
			C129.943,227.843,129.523,227.864,129.082,227.864z M95.239,52.109c-0.315,0.07-11.737,2.632-23.123,10.601
			c-10.589,7.411-23.315,21.154-23.812,44.539c-0.687,18.562,3.813,30.664,7.098,39.502c1.303,3.507,2.43,6.536,2.898,9.157
			c0.087,0.486,0.179,1.021,0.28,1.6c1.752,10.135,5.855,33.871,23.174,46.632c19.446,14.329,39.857,24.083,48.538,23.179
			c9.06-0.937,24.358-14.072,35.653-26.053c10.308-10.932,19.623-24.77,17.998-51.752c-0.144-2.394-0.273-4.876-0.404-7.423
			c-1.355-26.118-3.043-58.623-24.983-75.297C138.428,51.497,122.453,47.791,95.239,52.109z"/>
	</g>
	<g>
		<path style="fill:#FDD4B5;" d="M184.184,149.5c-1.613-26.773-1.29-64.513-25.483-82.899
			c-19.946-15.159-35.728-19.139-63.507-14.73c0,0-46.165,9.892-47.133,55.374c0,0,7.957-26.558,29.461-35.59
			c6.021,24.945,36.557,39.568,43.439,41.718c0,0-2.15,5.161,1.72,8.602c9.892-5.161,34.995-10.276,53.195,5.184
			c1.856,25.352,6.587,59.329-26.96,85.564c-20.644,18.924-30.106,12.042-62.362-5.161c-0.136,0.009-0.262,0.019-0.396,0.029
			c17.185,11.952,35.567,20.859,44.157,19.97c9.354-0.968,25.16-14.838,35.805-26.128S185.797,176.273,184.184,149.5z"/>
	</g>
	<path style="fill:#FE9A7A;" d="M103.011,197.564c0,0,4.294,2.991,9.508,0.767c5.214-2.224,5.291-2.684,10.275-2.224
		c0.92,0.153,2.3-2.224,6.518-2.377c4.217-0.153,14.677-0.965,17.767-4.048c-2.431,5.812-9.562,17.39-21.294,19.307
		C114.896,210.599,105.388,199.941,103.011,197.564z"/>
	<path style="fill:#FDD4B5;" d="M127.228,179.054c-1.745,0.403-3.439-0.037-5.049-0.72c-1.819-0.772-3.766-1.889-5.721-0.933
		c-1.333,0.652-2.352,1.842-3.799,2.277c-1.596,0.48-3.404-0.123-4.576-1.265c-0.896-0.874-1.301-1.959-1.357-3.089
		c-1.001,1.276-1.571,2.739-1.571,4.295c0,4.954,5.763,8.969,12.872,8.969c7.109,0,12.872-4.016,12.872-8.969
		c0-0.951-0.216-1.867-0.61-2.728C129.575,177.933,128.582,178.742,127.228,179.054z"/>
	<g>
		<g>
			<path style="fill:#FDD4B5;" d="M101.285,156.123c0,0,1.166-20.946-14.731-27.319c-16.325-6.545-26.435,5.009-27.556,16.475
				C58.658,153.427,77.27,172.552,101.285,156.123z"/>
			<path style="fill:#B4715A;" d="M95.212,136.943c-1.627-2.097-3.605-3.955-5.939-5.242c-5.015-2.765-11.074-2.863-16.427-1.072
				c-3.12,1.044-6.301,2.688-8.658,5.016c-0.057,0.057-0.169,0.358,0.014,0.254c1.226-0.696,2.385-1.5,3.619-2.183
				c1.21-0.669,2.466-1.268,3.757-1.763c2.686-1.029,5.578-1.599,8.459-1.538c2.746,0.058,5.505,0.655,7.969,1.887
				c2.284,1.141,4.282,2.778,5.971,4.684c2.008,2.265,3.384,4.89,4.845,7.515c0.101,0.181,0.399-0.226,0.351-0.371
				C98.317,141.54,96.879,139.093,95.212,136.943z"/>
			<g>
				<path d="M96.953,146.126c-0.623-1.663-1.377-3.257-2.321-4.717c-1.515-2.344-3.433-4.448-5.732-6.042
					c-5.325-3.692-12.088-3.91-18.128-1.978c-3.668,1.173-6.003,0.861-6.003,0.861s1.891,1.192,3.158,1.286
					c-5.19,1.731-8.499,3.396-11.203,2.488c2.865,1.523,4.113,1.41,4.113,1.41s-3.252,3.443-8.017,2.933
					c3.536,1.986,8.074,1.154,8.074,1.154s-2.188,6.494,5.003,11.191c6.381,4.168,13.914,5.391,21.394,4.265
					c4.115-0.619,8.339-1.766,12.134-3.487C98.792,152.407,98.088,149.153,96.953,146.126z"/>
				<path style="fill:#1B0101;" d="M56.803,147.821c1.53-0.027,3.044-0.617,4.188-1.633c-1.013,1.276-2.483,2.181-4.078,2.509
					c1.575,0.089,3.175-0.394,4.438-1.339c-1.075,1.123-2.431,1.975-3.909,2.456c1.603-0.195,3.16-0.765,4.509-1.652
					c-0.708,0.929-1.416,1.859-2.124,2.789c0.744-0.195,1.45-0.538,2.063-1.003c-0.403,0.691-0.927,1.311-1.541,1.823
					c0.84-0.263,1.68-0.527,2.52-0.79c-0.525,0.601-1.05,1.202-1.575,1.803c0.898-0.304,1.796-0.608,2.694-0.911
					c-2.007,1.162-3.687,2.884-4.8,4.92c1.335-1.939,3.337-3.408,5.586-4.1c-2.356,1.926-4.345,4.299-5.829,6.956
					c1.604-2.27,3.782-4.129,6.276-5.355c-0.561,0.78-1.122,1.559-1.683,2.338c0.777-0.826,1.775-1.442,2.861-1.765
					c-0.505,0.764-1.009,1.528-1.513,2.292c0.823-0.693,1.865-1.121,2.937-1.205c-0.316,0.417-0.632,0.835-0.948,1.253
					c0.566-0.423,1.234-0.708,1.93-0.827c-0.507,0.995-1.015,1.99-1.522,2.985c0.563-0.862,1.387-1.551,2.336-1.95
					c1.718-0.465,3.216,0.344,3.759,0.074c-0.682-1.543-4.33-2.369-5.709-3.34c-2.428-1.71-4.341-4.131-5.485-6.869
					c-0.271-0.65-0.364-1.577-0.723-2.159c-0.529-0.857-0.389-0.634-1.073,0.131C59.37,146.389,58.274,147.314,56.803,147.821z"/>
			</g>
			<g>
				<path style="fill:#E4E5E6;" d="M99.496,155.478c0,0-1.852-21.999-22.122-20.899c-12.226,1.261-15.108,8.813-14.987,11.777
					C62.507,149.321,69.668,164.291,99.496,155.478z"/>
				<path style="fill:#D6A174;" d="M82.782,158.464c-7.299,0-12.046-1.989-15.045-4.136c-4.1-2.935-5.538-6.631-5.593-7.962
					c-0.11-2.703,2.449-10.713,15.204-12.028c20.257-1.111,22.37,20.897,22.389,21.12c0.009,0.115-0.063,0.22-0.172,0.253
					C92.854,157.693,87.324,158.464,82.782,158.464z M78.8,134.782c-0.461,0-0.932,0.013-1.414,0.039
					c-12.374,1.276-14.863,8.941-14.757,11.525c0.051,1.253,1.436,4.757,5.39,7.587c4.759,3.408,14.034,6.404,31.214,1.369
					C98.985,153.186,96.31,134.782,78.8,134.782z"/>
			</g>
			<path style="fill:#FFFFFF;" d="M97.28,154.423c0,0-1.636-19.429-19.538-18.457c-10.798,1.114-13.343,7.783-13.236,10.401
				C64.614,148.985,70.938,162.206,97.28,154.423z"/>
			<g>
				<defs>
					<path id="SVGID_1_" d="M99.496,155.478c0,0-1.852-21.999-22.122-20.899c-12.226,1.261-15.108,8.813-14.987,11.777
						C62.507,149.321,69.668,164.291,99.496,155.478z"/>
				</defs>
				<clipPath id="SVGID_00000011015861442681742280000002173498832173114271_">
					<use xlink:href="#SVGID_1_"  style="overflow:visible;"/>
				</clipPath>
				<g style="clip-path:url(#SVGID_00000011015861442681742280000002173498832173114271_);">
					<g>
						<g>
							<path style="fill:#6E2400;" d="M71.865,148.434c1.247,5.899,7.037,9.67,12.933,8.422c5.895-1.247,9.663-7.04,8.416-12.939
								c-1.247-5.899-7.037-9.67-12.933-8.422C74.385,136.742,70.618,142.535,71.865,148.434z"/>
							<path style="fill:#9E6042;" d="M73.303,148.13c1.079,5.104,6.09,8.367,11.191,7.288c5.101-1.079,8.362-6.092,7.282-11.196
								c-1.079-5.104-6.09-8.367-11.191-7.288C75.484,138.012,72.224,143.025,73.303,148.13z"/>
							<path style="fill:#250E00;" d="M77.106,147.325c0.635,3.002,3.582,4.922,6.583,4.287c3.001-0.635,4.919-3.584,4.284-6.586
								c-0.635-3.003-3.582-4.922-6.583-4.287C78.389,141.373,76.471,144.322,77.106,147.325z"/>
						</g>
						<path style="fill:#FFFFFF;" d="M84.058,141.639c0.22,1.042,1.243,1.708,2.285,1.488c1.042-0.22,1.707-1.244,1.487-2.286
							c-0.22-1.042-1.243-1.708-2.285-1.488C84.504,139.574,83.838,140.597,84.058,141.639z"/>
						<path style="fill:#FFFFFF;" d="M87.123,145.355c0.131,0.618,0.737,1.012,1.354,0.882c0.617-0.131,1.012-0.737,0.881-1.355
							c-0.131-0.618-0.737-1.012-1.354-0.882C87.386,144.131,86.992,144.737,87.123,145.355z"/>
						<path style="fill:#8F6548;" d="M76.155,152.13c2.919,3.681,10.047,3.96,13.103-0.27c0.615-0.851,1.542-2.697,0.565-3.603
							c-0.111-0.103-0.458-0.208-0.535,0.004c-0.428,1.17-1.246,2.206-2.295,2.968c-0.91,0.661-2.002,1.107-3.128,1.277
							c-1.195,0.181-2.37-0.029-3.486-0.394c-2.39-0.781-3.576-2.861-4.39-5.213c-0.079-0.228-1.332-0.352-1.362,0.006
							C74.472,148.823,75.193,150.917,76.155,152.13z"/>
					</g>
				</g>
			</g>
		</g>
	</g>
	<g>
		<g>
			<path style="fill:#FDD4B5;" d="M131.066,150.183c0,0-5.264-20.307,9.068-29.684c14.719-9.629,26.904-0.291,30.258,10.731
				C172.329,139.152,157.844,161.565,131.066,150.183z"/>
			<path style="fill:#B4715A;" d="M133.246,130.183c1.182-2.376,2.757-4.587,4.792-6.308c4.373-3.697,10.294-4.986,15.895-4.283
				c3.265,0.41,6.707,1.396,9.476,3.214c0.067,0.044,0.236,0.317,0.036,0.252c-1.339-0.441-2.633-1.002-3.978-1.429
				c-1.318-0.418-2.667-0.758-4.031-0.989c-2.836-0.48-5.783-0.47-8.596,0.156c-2.681,0.597-5.268,1.726-7.442,3.418
				c-2.014,1.568-3.652,3.566-4.933,5.767c-1.523,2.616-2.356,5.46-3.272,8.321c-0.063,0.198-0.436-0.143-0.417-0.294
				C131.106,135.3,132.034,132.619,133.246,130.183z"/>
			<g>
				<path d="M133.346,139.528c0.284-1.753,0.709-3.465,1.347-5.081c1.024-2.596,2.491-5.036,4.431-7.052
					c4.495-4.667,11.082-6.212,17.385-5.507c3.827,0.428,6.055-0.337,6.055-0.337s-1.62,1.541-2.843,1.883
					c5.429,0.676,9.001,1.658,11.474,0.235c-2.509,2.057-3.755,2.191-3.755,2.191s3.866,2.736,8.437,1.298
					c-3.076,2.643-7.689,2.72-7.689,2.72s3.423,5.937-2.703,11.956c-5.436,5.342-12.581,8.024-20.137,8.391
					c-4.157,0.202-8.523-0.091-12.583-1.032C132.779,146.049,132.828,142.72,133.346,139.528z"/>
				<path style="fill:#1B0101;" d="M173.044,133.29c-1.505,0.275-3.106-0.006-4.428-0.777c1.244,1.052,2.863,1.65,4.492,1.658
					c-1.526,0.397-3.191,0.238-4.615-0.439c1.275,0.89,2.772,1.458,4.316,1.639c-1.61,0.125-3.249-0.128-4.746-0.733
					c0.877,0.772,1.754,1.544,2.631,2.316c-0.768-0.045-1.527-0.242-2.22-0.578c0.531,0.598,1.167,1.102,1.869,1.484
					c-0.875-0.093-1.751-0.186-2.626-0.279c0.633,0.486,1.266,0.972,1.899,1.458c-0.94-0.121-1.881-0.242-2.821-0.363
					c2.197,0.745,4.182,2.102,5.674,3.879c-1.69-1.639-3.942-2.685-6.284-2.921c2.689,1.425,5.106,3.361,7.083,5.674
					c-2.019-1.91-4.521-3.304-7.207-4.016c0.703,0.654,1.406,1.308,2.11,1.962c-0.924-0.657-2.024-1.064-3.152-1.168
					c0.645,0.65,1.29,1.299,1.935,1.949c-0.943-0.518-2.049-0.732-3.117-0.604c0.392,0.347,0.784,0.694,1.176,1.042
					c-0.639-0.303-1.349-0.452-2.055-0.431c0.693,0.876,1.386,1.751,2.08,2.627c-0.721-0.735-1.665-1.247-2.674-1.453
					c-1.775-0.118-3.086,0.97-3.671,0.812c0.365-1.647,3.779-3.174,4.94-4.398c2.044-2.154,3.444-4.904,4.027-7.814
					c0.138-0.69,0.046-1.618,0.284-2.259c0.35-0.944,0.257-0.698,1.078-0.082C170.245,132.391,171.502,133.083,173.044,133.29z"/>
			</g>
			<g>
				<path style="fill:#E4E5E6;" d="M132.692,149.198c0,0-2.512-21.933,17.578-24.843c12.235-1.169,16.546,5.668,17.011,8.599
					C167.746,135.884,163.671,151.97,132.692,149.198z"/>
				<path style="fill:#D6A174;" d="M139.517,149.759c-2.118,0-4.395-0.101-6.847-0.32c-0.115-0.01-0.206-0.099-0.219-0.214
					c-0.026-0.222-2.307-22.201,17.784-25.111c12.799-1.224,16.862,6.129,17.286,8.801c0.208,1.314-0.474,5.22-3.914,8.904
					C160.073,145.603,153.096,149.759,139.517,149.759z M132.915,148.974c17.844,1.557,26.342-3.207,30.337-7.485
					c3.319-3.553,3.987-7.259,3.79-8.497c-0.404-2.555-4.346-9.58-16.749-8.395C131.69,127.291,132.738,146.793,132.915,148.974z"/>
			</g>
			<path style="fill:#FFFFFF;" d="M134.657,147.727c0,0-2.219-19.371,15.524-21.94c10.806-1.033,14.613,5.006,15.024,7.594
				C165.615,135.969,162.016,150.176,134.657,147.727z"/>
			<g>
				<defs>
					<path id="SVGID_00000077283779789559768430000017776459160567785898_" d="M132.692,149.198c0,0-2.512-21.933,17.578-24.843
						c12.235-1.169,16.546,5.668,17.011,8.599C167.746,135.884,163.671,151.97,132.692,149.198z"/>
				</defs>
				<clipPath id="SVGID_00000016077234775740417050000006751749161544853636_">
					<use xlink:href="#SVGID_00000077283779789559768430000017776459160567785898_"  style="overflow:visible;"/>
				</clipPath>
				<g style="clip-path:url(#SVGID_00000016077234775740417050000006751749161544853636_);">
					<g>
						<g>
							<path style="fill:#6E2400;" d="M138.792,138.206c1.345,5.877,7.197,9.552,13.071,8.206c5.874-1.345,9.545-7.2,8.2-13.077
								c-1.345-5.877-7.197-9.552-13.071-8.206C141.118,126.474,137.447,132.329,138.792,138.206z"/>
							<path style="fill:#9E6042;" d="M140.224,137.878c1.164,5.086,6.228,8.265,11.31,7.101c5.083-1.164,8.259-6.23,7.096-11.316
								c-1.164-5.086-6.228-8.265-11.31-7.101C142.237,127.726,139.061,132.792,140.224,137.878z"/>
							<path style="fill:#250E00;" d="M144.014,137.01c0.684,2.992,3.663,4.862,6.653,4.177c2.99-0.685,4.859-3.665,4.174-6.657
								c-0.685-2.992-3.663-4.862-6.653-4.177C145.198,131.038,143.329,134.019,144.014,137.01z"/>
						</g>
						<path style="fill:#FFFFFF;" d="M150.871,131.21c0.238,1.038,1.271,1.688,2.309,1.45c1.038-0.238,1.686-1.272,1.449-2.31
							c-0.238-1.038-1.271-1.687-2.309-1.45C151.282,129.138,150.633,130.172,150.871,131.21z"/>
						<path style="fill:#FFFFFF;" d="M153.996,134.874c0.141,0.616,0.753,1,1.368,0.859c0.615-0.141,0.999-0.754,0.859-1.369
							c-0.141-0.615-0.754-1-1.368-0.859C154.24,133.646,153.856,134.259,153.996,134.874z"/>
						<path style="fill:#8F6548;" d="M143.143,141.831c2.98,3.632,10.111,3.793,13.097-0.487c0.6-0.861,1.497-2.723,0.505-3.612
							c-0.112-0.101-0.461-0.201-0.535,0.013c-0.408,1.176-1.209,2.227-2.245,3.005c-0.899,0.676-1.983,1.14-3.106,1.328
							c-1.191,0.2-2.371,0.01-3.492-0.336c-2.402-0.741-3.624-2.802-4.476-5.139c-0.083-0.227-1.338-0.33-1.361,0.029
							C141.405,138.552,142.16,140.634,143.143,141.831z"/>
					</g>
				</g>
			</g>
		</g>
	</g>
	<g>
		<path style="fill:#F08D56;" d="M90.64,126.275c0,0-26.02-5.376-38.708,0.43c6.666-8.602,30.966-9.247,34.407-7.526
			S90.855,125.845,90.64,126.275z"/>
		<path style="fill:#BC5626;" d="M51.933,126.948c-0.072,0-0.143-0.032-0.19-0.092c-0.069-0.088-0.07-0.211-0.001-0.299
			c6.792-8.765,31.194-9.352,34.706-7.595c1.896,0.948,3.023,2.78,3.635,4.15c0.595,1.333,0.964,2.893,0.775,3.272
			c-0.049,0.099-0.154,0.156-0.266,0.129c-0.259-0.054-26.09-5.294-38.557,0.413C52.001,126.941,51.967,126.948,51.933,126.948z
			 M79.769,118.669c-8.249,0-21.656,1.88-26.967,7.404c12.208-4.819,34.935-0.611,37.626-0.087c-0.049-1.04-1.216-5.1-4.196-6.59
			C85.328,118.944,82.926,118.669,79.769,118.669z"/>
	</g>
	<path style="opacity:0.55;fill:#CB5530;" d="M86.34,119.179c-0.116-0.058-0.26-0.113-0.422-0.165
		c0.24,0.821,0.059,1.668-0.706,2.234c-1.231,0.91-3.164,0.913-4.623,1.019c-3.879,0.283-7.77-0.024-11.648-0.156
		c-3.821-0.13-7.751-0.143-11.475,0.831c-0.563,0.147-1.116,0.33-1.662,0.531c-1.576,0.925-2.911,1.994-3.871,3.233
		c12.688-5.806,38.708-0.43,38.708-0.43C90.855,125.845,89.78,120.899,86.34,119.179z"/>
	<g>
		<path style="fill:#F08D56;" d="M123.639,118.703c0,0,23.655-12.1,37.429-9.875c-8.713-6.52-32.31-0.682-35.17,1.891
			S123.318,118.345,123.639,118.703z"/>
		<path style="fill:#BC5626;" d="M123.639,118.945c-0.067,0-0.134-0.028-0.18-0.08c-0.455-0.506-0.606-5.731,2.278-8.327
			c2.92-2.628,26.598-8.548,35.476-1.904c0.09,0.067,0.122,0.186,0.079,0.289c-0.044,0.102-0.151,0.164-0.262,0.144
			c-13.542-2.186-37.044,9.731-37.28,9.852C123.715,118.937,123.677,118.945,123.639,118.945z M148.717,106.127
			c-9.702,0-20.789,3.091-22.656,4.771c-2.476,2.228-2.523,6.452-2.294,7.469c2.458-1.223,23.248-11.319,36.296-9.918
			C157.223,106.762,153.111,106.127,148.717,106.127z"/>
	</g>
	<path style="opacity:0.55;fill:#CB5530;" d="M130.11,108.814c0.749,0.236,1.597,0.532,2.198,0.997
		c1.283,0.992-0.173,2.54-1.096,3.153c-1.334,0.886-2.945,1.298-4.425,1.87c-1.067,0.412-2.192,0.712-3.264,1.125
		c-0.165,1.437-0.031,2.58,0.116,2.743c0,0,23.655-12.1,37.429-9.875C154.182,103.674,138.004,106.241,130.11,108.814z"/>
	<g>
		<path style="fill:#B4715A;" d="M152.003,184.46c-1.501-0.392-3.135-0.433-4.645-0.078c-0.079,0.018-0.31,0.314-0.179,0.312
			c0.913-0.011,1.831,0.005,2.74,0.102c-0.86,1.576-1.803,3.127-3.014,4.459c-1.29,1.419-2.893,2.497-4.511,3.504
			c-3.156,1.963-6.517,3.602-10.026,4.832c-7.03,2.464-14.643,3.23-21.976,1.778c-1.996-0.395-3.953-0.93-5.867-1.622
			c-1.797-0.65-3.471-1.519-5.197-2.315c0.404-0.108,0.821-0.177,1.244-0.221c0.153-0.016,0.542-0.5,0.295-0.533
			c-1.052-0.137-2.157,0.287-3.001,0.897c-0.471,0.34-0.885,0.742-1.218,1.219c-0.303,0.434-0.561,0.953-0.516,1.497
			c0.011,0.134,0.201-0.066,0.213-0.122c0.205-0.934,0.899-1.705,1.698-2.199c0.227-0.141,0.464-0.25,0.706-0.345
			c1.434,1.069,3.146,1.835,4.791,2.511c1.773,0.729,3.616,1.3,5.484,1.727c3.67,0.839,7.495,1.093,11.248,0.846
			c7.708-0.507,15.195-3.178,21.764-7.188c1.804-1.102,3.59-2.286,5.041-3.839c1.34-1.433,2.37-3.11,3.28-4.839
			c0.372,0.053,0.742,0.12,1.109,0.213c0.664,0.167,1.311,0.418,1.872,0.816c0.498,0.353,0.879,0.815,1.295,1.254
			c0.128,0.136,0.386-0.242,0.357-0.36C154.669,185.466,153.188,184.77,152.003,184.46z"/>
		<path style="fill:#B4715A;" d="M138.363,201.542c-1.133,1.254-2.269,2.485-3.618,3.514c-1.369,1.044-2.889,1.891-4.489,2.527
			c-3.319,1.318-6.969,1.616-10.47,0.934c-2.03-0.395-4.106-1.069-5.936-2.041c-0.063-0.033-0.198,0.131-0.144,0.166
			c1.617,1.035,3.257,1.806,5.126,2.282c1.835,0.466,3.761,0.629,5.65,0.52c3.588-0.207,7.067-1.482,9.975-3.586
			c1.589-1.15,3.105-2.524,4.151-4.198C138.774,201.394,138.531,201.356,138.363,201.542z"/>
	</g>
	<g>
		<path style="fill:#B4715A;" d="M108.387,185.511c-0.613-0.551-1.16-1.21-1.55-1.937c-0.833-1.552-1.078-3.505-0.705-5.226
			c0.006-0.025-0.044,0.016-0.048,0.029c-0.295,0.956-0.424,1.852-0.309,2.855c0.103,0.902,0.379,1.767,0.814,2.563
			c0.388,0.709,0.873,1.35,1.471,1.895c0.631,0.574,1.342,0.931,2.127,1.247c0.035,0.014,0.112-0.092,0.082-0.106
			C109.581,186.508,108.951,186.018,108.387,185.511z"/>
		<path style="fill:#B4715A;" d="M130.986,178.638c-0.028-0.711-0.164-1.439-0.432-2.099c-0.571-1.41-1.733-2.651-3.083-3.353
			c-0.02-0.01,0.035-0.02,0.046-0.016c0.798,0.332,1.464,0.741,2.068,1.37c0.543,0.566,0.965,1.227,1.253,1.956
			c0.257,0.649,0.416,1.325,0.447,2.024c0.033,0.735-0.122,1.405-0.345,2.101c-0.01,0.031-0.123,0.024-0.116-0.004
			C130.989,179.981,131.011,179.293,130.986,178.638z"/>
		<path style="fill:#B4715A;" d="M121.699,185.261c0,0-0.159-3.452,4.726-3.239C124.088,180.217,119.362,181.756,121.699,185.261z"
			/>
		<path style="fill:#B4715A;" d="M115.167,186.907c0,0-2.814-3.027-5.682-2.336C109.857,182.394,113.946,183.243,115.167,186.907z"
			/>
	</g>
	<g>
		<g>
			<path style="fill:#F7E35D;" d="M90.778,259.597c5.478-1.541,11.983-5.478,11.983-5.478s-2.397-2.568-11.812-0.856
				c-0.004,0.001-0.007,0.001-0.011,0.002C90.414,256.06,90.778,259.597,90.778,259.597z"/>
			<path style="fill:#AF9A3E;" d="M90.779,259.84c-0.048,0-0.096-0.014-0.136-0.042c-0.059-0.041-0.097-0.105-0.105-0.176
				c-0.015-0.146-0.362-3.604,0.163-6.402c0.018-0.094,0.088-0.168,0.18-0.19c9.465-1.722,11.957,0.815,12.059,0.924
				c0.05,0.054,0.073,0.127,0.063,0.199c-0.01,0.073-0.052,0.136-0.115,0.174c-0.065,0.04-6.597,3.972-12.043,5.504
				C90.823,259.837,90.8,259.84,90.779,259.84z M91.147,253.473c-0.388,2.24-0.223,4.934-0.153,5.81
				c4.655-1.371,10.02-4.421,11.338-5.192C101.521,253.551,98.576,252.151,91.147,253.473z"/>
		</g>
	</g>
	<g>
		<path style="fill:#F7E35D;" d="M255.794,323.685c1.505-3.871,1.505-13.978-2.15-17.849c0.86-1.72,0.86-9.032-7.527-23.225
			c-6.198-10.49-12.601-15.863-21.703-18.315c-6.383,5.976-30.1,31.429-24.316,75.087
			C200.097,339.383,232.414,307.8,255.794,323.685z"/>
		<path style="fill:#AF9A3E;" d="M200.098,339.626c-0.027,0-0.053-0.005-0.079-0.013c-0.086-0.03-0.149-0.106-0.161-0.197
			c-5.738-43.311,17.219-68.582,24.391-75.296c0.061-0.058,0.149-0.08,0.229-0.057c9.135,2.46,15.67,7.971,21.848,18.426
			c8.055,13.63,8.519,21.085,7.605,23.301c3.669,4.086,3.563,14.197,2.09,17.984c-0.027,0.068-0.084,0.121-0.154,0.143
			c-0.07,0.022-0.148,0.011-0.208-0.03c-22.949-15.592-55.068,15.356-55.389,15.671C200.221,339.602,200.16,339.626,200.098,339.626
			z M224.481,264.565c-7.212,6.787-29.659,31.718-24.204,74.314c1.669-1.564,9.152-8.34,18.786-13.516
			c14.351-7.707,27.001-8.415,36.609-2.052c0.687-2.003,0.983-5.37,0.741-8.533c-0.306-3.972-1.352-7.089-2.946-8.776
			c-0.07-0.074-0.086-0.184-0.041-0.275c0.774-1.548,0.931-8.694-7.518-22.993C239.748,272.311,233.533,267.038,224.481,264.565z"/>
	</g>
	<path style="fill:#E0C44E;" d="M236.756,315.952c-8.906,1.12-17.567,3.78-25.714,7.517c-0.443,0.203-0.904-0.613-0.803-0.976
		c0.559-2.015,1.365-3.951,2.363-5.787c2.798-5.144,6.961-9.383,10.064-14.315c-2.239,1.97-4.374,4.06-6.578,6.066
		c-2.855,2.6-5.86,5.187-9.379,6.849c-0.482,0.227-0.792-0.677-0.747-1.002c0.567-4.094,1.522-8.125,2.812-12.051
		c2.255-6.865,5.49-13.367,9.13-19.595c3.368-5.764,7.046-11.381,10.863-16.865c-1.385-0.585-2.828-1.086-4.353-1.497
		c-6.383,5.976-30.1,31.429-24.316,75.087c0,0,32.317-31.583,55.696-15.698c0.645-1.658,1.01-4.462,0.933-7.429
		C250.132,315.198,243.39,315.117,236.756,315.952z"/>
	<g>
		<path style="fill:#F7E35D;" d="M200.097,339.383c-1.863,2.05-2.432,7.17-1.151,13.118c0,0,45.21-32.043,61.14-19.659
			c-1.031-4.436-4.293-9.156-4.293-9.156C232.414,307.8,200.097,339.383,200.097,339.383z"/>
		<path style="fill:#AF9A3E;" d="M198.946,352.743c-0.029,0-0.06-0.006-0.088-0.016c-0.076-0.03-0.132-0.096-0.149-0.175
			c-1.25-5.804-0.764-11.162,1.21-13.331c0.003-0.004,0.006-0.008,0.01-0.01c0.081-0.08,8.23-7.987,19.135-13.846
			c14.481-7.778,27.228-8.428,36.867-1.879c0.025,0.017,0.046,0.038,0.063,0.063c0.032,0.048,3.3,4.809,4.329,9.24
			c0.024,0.1-0.019,0.204-0.105,0.26c-0.086,0.055-0.199,0.05-0.279-0.013c-15.608-12.134-60.4,19.346-60.851,19.665
			C199.044,352.728,198.995,352.743,198.946,352.743z M200.272,339.552c-1.829,2.02-2.288,7.026-1.164,12.539
			c1.89-1.312,12.365-8.467,24.329-14.282c17.254-8.389,29.443-10.259,36.247-5.563c-1.097-3.941-3.776-7.959-4.065-8.385
			C232.762,308.384,200.832,339.009,200.272,339.552z"/>
	</g>
	<path style="fill:#E0C44E;" d="M231.502,334.038c-1.871,0.276-3.729,0.537-5.517,1.179c-1.713,0.615-3.333,1.45-4.95,2.278
		c-3.172,1.625-6.426,3.212-10.066,3.253c-0.29,0.003-0.55-0.337-0.628-0.587c-0.572-1.821-0.648-3.609,0.393-5.271
		c0.896-1.43,2.455-2.329,3.909-3.094c1.861-0.979,3.808-1.787,5.722-2.657c2.149-0.977,4.298-1.957,6.473-2.877
		c4.285-1.814,8.71-3.449,13.322-4.186c4.154-0.664,8.624-0.662,12.704,0.439c0.908,0.245,1.765,0.567,2.589,0.952
		c-23.352-15.354-55.356,15.917-55.356,15.917c-1.863,2.05-2.432,7.17-1.151,13.118c0,0,17.344-12.29,34.333-18.706
		C232.686,333.875,232.092,333.951,231.502,334.038z"/>
	<g>
		<g>
			<path style="fill:#FDD4B5;" d="M198.946,352.501h46.311v-6.666v-15.399C225.662,333.567,198.946,352.501,198.946,352.501z"/>
			<path style="fill:#B4715A;" d="M245.257,352.743h-46.311c-0.105,0-0.199-0.068-0.231-0.169c-0.032-0.101,0.005-0.21,0.091-0.272
				c0.268-0.189,26.988-19.001,46.413-22.107c0.068-0.011,0.141,0.009,0.195,0.055c0.054,0.046,0.085,0.114,0.085,0.185V352.5
				C245.499,352.634,245.39,352.743,245.257,352.743z M199.721,352.258h45.294V330.72
				C227.393,333.664,203.866,349.409,199.721,352.258z"/>
		</g>
		<g>
			<path style="fill:#F7E35D;" d="M260.31,334.007c-0.052-0.384-0.132-0.774-0.223-1.165c-3.684-2.864-8.935-3.349-14.83-2.406
				v15.399C245.257,345.834,260.955,338.738,260.31,334.007z"/>
			<path style="fill:#D1BBA7;" d="M245.257,346.077c-0.046,0-0.092-0.013-0.132-0.039c-0.069-0.044-0.111-0.121-0.111-0.204v-15.4
				c0-0.119,0.086-0.221,0.205-0.24c6.526-1.039,11.579-0.216,15.016,2.455c0.044,0.034,0.075,0.082,0.087,0.136
				c0.109,0.469,0.182,0.846,0.228,1.187l0,0c0.661,4.856-14.546,11.789-15.194,12.081
				C245.325,346.069,245.291,346.077,245.257,346.077z M245.499,330.642v14.812c1.037-0.485,4.266-2.038,7.402-3.968
				c4.939-3.04,7.418-5.615,7.168-7.446v-0.001c-0.041-0.305-0.105-0.643-0.2-1.058
				C256.581,330.464,251.747,329.679,245.499,330.642z"/>
		</g>
		<path style="fill:#E0C44E;" d="M260.31,334.007c-0.052-0.384-0.132-0.774-0.223-1.165c-3.684-2.864-8.935-3.349-14.83-2.406
			v15.399C245.257,345.834,260.955,338.738,260.31,334.007z"/>
	</g>
	<g>
		<path style="fill:#F7E35D;" d="M224.414,264.296c-3.214-0.866-6.757-1.375-10.756-1.606c-15.327-0.884-24.759-6.484-24.759-6.484
			s-38.047,38.448-70.948,35.438c-32.902-3.01-34.192-35.482-34.192-35.482c-5.978,1.888-26.235,6.236-34.192,7.527
			c-15.264-4.515-31.816,26.217-42.139,46.646c4.618,11.663,16.886,34.753,42.098,36.518l-3.138,5.649h152.558
			c-1.28-5.948-0.712-11.068,1.151-13.118C194.314,295.726,218.031,270.272,224.414,264.296z"/>
		<path style="fill:#AF9A3E;" d="M198.946,352.743H46.388c-0.086,0-0.166-0.046-0.209-0.119c-0.043-0.074-0.044-0.166-0.003-0.241
			l2.955-5.317c-10.897-0.859-20.503-5.769-28.555-14.598c-6.782-7.435-11.015-16.092-13.373-22.045
			c-0.025-0.065-0.022-0.137,0.01-0.198c12.879-25.487,27.985-50.965,42.37-46.785c8.241-1.341,28.267-5.666,34.104-7.509
			c0.07-0.023,0.151-0.011,0.212,0.033c0.062,0.043,0.1,0.113,0.103,0.188c0.003,0.081,0.374,8.175,4.738,16.525
			c4.02,7.69,12.354,17.181,29.233,18.725c16.933,1.546,35.256-8.145,47.654-16.549c13.449-9.117,23.005-18.722,23.1-18.817
			c0.078-0.08,0.199-0.094,0.296-0.038c0.094,0.056,9.564,5.58,24.649,6.45c4.122,0.239,7.657,0.766,10.805,1.615
			c0.084,0.023,0.151,0.09,0.172,0.175c0.022,0.085-0.005,0.175-0.069,0.236c-7.13,6.673-29.95,31.797-24.242,74.878
			c0.009,0.071-0.013,0.142-0.062,0.195c-1.873,2.059-2.312,7.245-1.094,12.903c0.016,0.072-0.002,0.147-0.048,0.204
			C199.089,352.71,199.019,352.743,198.946,352.743z M46.8,352.258h151.847c-1.156-5.615-0.681-10.768,1.196-12.952
			c-5.602-42.622,16.587-67.75,24.087-74.886c-3.009-0.775-6.381-1.262-10.286-1.487c-14.121-0.815-23.375-5.686-24.704-6.424
			c-1.198,1.188-10.41,10.184-23.04,18.746c-12.464,8.45-30.916,18.192-47.97,16.63c-17.105-1.565-25.552-11.196-29.627-18.999
			c-3.923-7.512-4.65-14.82-4.766-16.401c-6.218,1.9-25.844,6.131-33.931,7.443c-0.036,0.004-0.073,0.003-0.108-0.008
			c-14.12-4.168-29.755,22.592-41.805,46.426c11.853,29.829,31.303,35.525,41.85,36.264c0.082,0.006,0.156,0.053,0.196,0.126
			c0.04,0.073,0.039,0.161-0.001,0.233L46.8,352.258z"/>
	</g>
	<path style="fill:#E0C44E;" d="M224.414,264.296c-3.214-0.866-6.757-1.375-10.756-1.606c-15.327-0.884-24.759-6.484-24.759-6.484
		s-38.047,38.448-70.948,35.438c-32.901-3.011-34.192-35.482-34.192-35.482c-5.979,1.888-26.235,6.236-34.192,7.527
		c-4.153-1.228-8.4,0.166-12.592,3.238c1.962-0.608,4.136-0.758,5.984,0.287c2.129,1.204,3.299,3.521,4.048,5.781
		c0.419-0.846,0.863-1.678,1.385-2.467c0.893-1.351,2.007-2.547,3.414-3.366c1.344-0.782,2.876-1.153,4.393-1.43
		c2.029-0.371,4.083-0.59,6.12-0.911c1.79-0.282,3.534-0.781,5.306-1.148c1.311-0.271,2.822-0.561,4.117-0.062
		c1.425,0.549,2.033,2.057,2.251,3.466c0.371,2.397,0.008,4.863-0.557,7.199c-0.654,2.703-1.644,5.315-2.703,7.882
		c-1.052,2.548-2.195,5.058-3.236,7.611c-1.032,2.532-1.761,5.167-2.551,7.782c-0.84,2.779-1.713,5.55-2.797,8.246
		c-0.871,2.166-1.867,4.382-3.226,6.293c-1.268,1.783-3.165,3.254-5.39,2.216c-2.296-1.072-3.888-3.621-5.205-5.671
		c-1.81-2.815-3.391-5.768-5.149-8.615c-1.304-2.112-2.766-4.599-4.872-6.044c-0.232,1.874,0.327,3.822,0.965,5.558
		c1.434,3.9,3.681,7.426,5.577,11.105c1.122,2.177,1.876,4.538,2.798,6.806c1.069,2.629,2.16,5.25,3.131,7.918
		c0.096,0.263,0.163,0.837-0.212,0.926c-3.065,0.723-6.08-0.619-9.15-0.412c0.036,0.122,0.069,0.244,0.105,0.366
		c0.694,2.333,1.497,4.789,1.524,7.244c0.01,0.858-0.054,1.879-0.74,2.488c-0.624,0.554-1.416,0.691-2.22,0.535
		c-2.17-0.423-4.053-2.264-5.57-3.755c-1.669-1.64-3.181-3.418-4.751-5.149c-2.358-2.6-4.847-5.083-7.287-7.605
		c-2.828-2.924-5.732-5.88-8.156-9.156c-1.454-1.966-2.77-4.022-4.023-6.119c-1.001,1.929-1.961,3.811-2.871,5.611
		c4.618,11.663,16.886,34.753,42.098,36.518l-3.138,5.649H59.11c-0.028-0.583-0.04-1.167-0.015-1.753
		c0.196-4.47,2.126-8.625,4.347-12.429c1.637-2.805,3.56-5.418,5.258-8.184c1.608-2.619,3.095-5.323,4.399-8.106
		c2.49-5.314,4.394-11.003,5.242-16.823c0.826-5.669-0.073-11.675,2.135-17.096c0.097-0.238,0.293-0.31,0.48-0.107
		c0.682,0.739,1.389,1.453,2.125,2.138c5.935,5.515,13.531,8.866,21.382,10.587c8.582,1.881,17.497,1.948,26.204,1.014
		c9.056-0.972,17.998-3.044,26.63-5.932c7.96-2.663,15.734-6.036,22.962-10.319c4.267-2.528,8.208-5.504,12.084-8.591
		c5.147-4.1,10.187-8.345,15.225-12.578c0.267-0.224,0.427,0.176,0.441,0.383c0.116,1.722-0.264,3.46-0.726,5.108
		c-0.58,2.071-1.36,4.078-2.213,6.049c-1.562,3.608-3.364,7.109-5.213,10.577c-1.95,3.656-3.826,7.273-6.384,10.558
		c-5.172,6.645-11.729,12.018-17.276,18.324c6.086-1.954,11.645-5.331,17.166-8.482c0.462-0.264,0.479,0.766,0.398,0.974
		c-3.143,8.152-4.17,16.882-6.018,25.368c-0.744,3.416-1.443,6.9-2.8,10.138c-1.244,2.97-3.162,5.58-5.456,7.826
		c-0.479,0.47-0.98,0.915-1.487,1.354h20.945c-1.28-5.948-0.712-11.068,1.151-13.118
		C194.314,295.725,218.031,270.272,224.414,264.296z"/>
	<g>
		<g>
			<path style="fill:#F7E35D;" d="M49.526,346.852c-25.212-1.765-37.48-24.855-42.098-36.518c-0.003,0.006-0.006,0.012-0.009,0.018
				c-10.322,20.429,10.537,35.267,10.537,35.267s4.437,3.619,10.924,6.881h17.508L49.526,346.852z"/>
			<path style="fill:#AF9A3E;" d="M46.388,352.743H28.879c-0.038,0-0.075-0.009-0.109-0.026c-6.436-3.237-10.924-6.873-10.968-6.91
				c-0.197-0.139-20.897-15.185-10.599-35.563c0.042-0.085,0.128-0.143,0.231-0.143c0.096,0.005,0.184,0.055,0.219,0.144
				c11.849,29.919,31.332,35.626,41.89,36.366c0.082,0.006,0.156,0.053,0.196,0.126c0.04,0.073,0.039,0.161-0.001,0.233
				l-3.138,5.649C46.557,352.695,46.476,352.743,46.388,352.743z M28.937,352.258h17.307l2.885-5.192
				c-10.897-0.859-20.503-5.769-28.555-14.598c-6.592-7.228-10.776-15.609-13.171-21.539c-9.544,19.79,10.487,34.347,10.692,34.493
				C18.153,345.468,22.578,349.052,28.937,352.258z"/>
		</g>
		<path style="fill:#E0C44E;" d="M7.428,310.334c-0.003,0.006-0.006,0.012-0.009,0.018c-1.09,2.157-1.814,4.247-2.27,6.268
			c1.308,1.621,1.833,3.811,2.54,5.761c1.118,3.084,3.186,5.691,5.413,8.055c2.066,2.193,4.255,4.343,6.507,6.345
			c2.179,1.937,4.454,3.766,6.908,5.343c1.83,1.176,3.594,2.15,5.558,3.018c1.543,0.682,3.549,1.386,4.615,2.772
			c0.855,1.113,0.645,2.635-0.062,3.767c-0.181,0.289-0.394,0.555-0.611,0.819h10.371l3.138-5.649
			C24.314,345.087,12.046,321.997,7.428,310.334z"/>
		<g>
			<path style="fill:#FDD4B5;" d="M17.956,352.501H28.88c-6.487-3.263-10.924-6.881-10.924-6.881V352.501z"/>
			<path style="fill:#B4715A;" d="M28.879,352.743H17.956c-0.134,0-0.243-0.109-0.243-0.242v-6.881c0-0.094,0.054-0.179,0.138-0.219
				c0.085-0.042,0.185-0.027,0.258,0.031c0.043,0.036,4.493,3.64,10.879,6.852c0.1,0.051,0.153,0.164,0.127,0.273
				C29.09,352.666,28.992,352.743,28.879,352.743z M18.198,352.258h9.677c-4.891-2.557-8.516-5.243-9.677-6.139V352.258z"/>
		</g>
	</g>
	<path style="fill:#AF9A3E;" d="M70.682,303.726c-4.977,12.777-10.836,25.195-17.758,37.036c-1.943,3.323-3.939,6.618-5.987,9.878
		c-0.367,0.584,0.314,0.57,0.594,0.156c7.7-11.395,14.112-23.697,19.412-36.379c1.487-3.559,2.854-7.164,4.126-10.805
		C71.165,303.333,70.736,303.587,70.682,303.726z"/>
	<path style="fill:#FDD1AB;" d="M124.145,170.531c-5.746-3.275-13.185-1.079-16.657,4.412c-0.108,0.17,0.074,0.135,0.149,0.025
		c1.677-2.43,4.224-4.262,7.087-5.011c3.047-0.798,6.265-0.336,9.082,1.019C123.957,171.049,124.293,170.616,124.145,170.531z"/>
	<path style="fill:#FDD1AB;" d="M115.65,171.732c0.39,0.799-0.589,2.079-2.187,2.859c-1.598,0.78-3.21,0.765-3.6-0.034
		c-0.39-0.799,0.589-2.079,2.187-2.859C113.649,170.918,115.26,170.933,115.65,171.732z"/>
	<path style="fill:#FE9A7A;" d="M110.79,199.823c0,0,19.652-0.217,32.224-7.153C133.91,202.786,117.582,204.52,110.79,199.823z"/>
	<g>
		<path style="opacity:0.55;fill:#FFAD7D;" d="M116.277,203.027c0,0,3.998,1.738,10.082,0c6.084-1.738,1.391,3.998-5.563,3.303
			C113.843,205.634,111.757,201.984,116.277,203.027z"/>
		<path style="opacity:0.55;fill:#FFAD7D;" d="M132.158,202.012c0.238,0.492-0.115,1.155-0.789,1.481
			c-0.674,0.326-1.413,0.19-1.651-0.302c-0.238-0.492,0.115-1.155,0.789-1.481C131.181,201.385,131.92,201.52,132.158,202.012z"/>
	</g>
	<g>
		<path style="fill:#F7E35D;" d="M184.248,253.434c-2.225,1.712-28.76,35.436-64.025,34.238
			c-22.597-2.568-30.129-12.154-29.445-28.075c0,0-0.364-3.537,0.161-6.332c-9.404,1.711-9.576,3.765-9.747,5.818
			c-0.171,2.054,1.541,17.633,11.812,27.561c10.271,9.929,41.941,14.722,64.881-1.37c22.939-16.092,34.238-28.246,34.238-28.246
			S186.473,251.722,184.248,253.434z"/>
		<path style="fill:#AF9A3E;" d="M123.076,296.002c-0.796,0-1.592-0.014-2.392-0.043c-11.777-0.418-22.449-3.92-27.85-9.141
			c-10.526-10.176-12.042-25.879-11.885-27.756c0.176-2.111,0.358-4.292,9.945-6.037c0.079-0.016,0.159,0.011,0.216,0.067
			c0.056,0.057,0.081,0.137,0.066,0.216c-0.512,2.729-0.161,6.228-0.157,6.263c-0.725,16.897,8.289,25.479,29.23,27.859
			c20.57,0.686,41.466-10.189,62.072-32.362c0.937-1.008,1.502-1.616,1.778-1.828c2.362-1.817,7.951,3.387,8.188,3.61
			c0.098,0.092,0.102,0.244,0.012,0.342c-0.114,0.122-11.579,12.358-34.277,28.28C148.29,292.302,135.959,296.002,123.076,296.002z
			 M90.64,253.567c-8.884,1.664-9.048,3.633-9.207,5.536c-0.146,1.762,1.508,17.478,11.74,27.367
			c10.599,10.247,42.382,14.173,64.573-1.394c21.173-14.852,32.543-26.479,34.032-28.035c-1.665-1.516-5.749-4.672-7.382-3.414l0,0
			c-0.243,0.188-0.862,0.854-1.718,1.774c-20.077,21.603-40.45,32.546-60.579,32.546c-0.63,0-1.255-0.011-1.885-0.032
			c-21.269-2.417-30.417-11.153-29.678-28.328C90.523,259.481,90.203,256.295,90.64,253.567z M184.248,253.434h0.006H184.248z"/>
	</g>
	<path style="fill:#E0C44E;" d="M184.248,253.434c-2.225,1.712-28.76,35.436-64.025,34.238
		c-22.597-2.568-30.129-12.154-29.445-28.075c0,0-0.364-3.537,0.161-6.332c-9.404,1.711-9.576,3.765-9.747,5.818
		c-0.023,0.276-0.01,0.803,0.051,1.521c1.917-1.395,3.98-2.695,6.264-3.384c0.223-0.067,0.257,0.221,0.207,0.362
		c-0.415,1.158-0.741,2.348-0.966,3.558c-0.756,4.072-0.248,8.264,1.482,12.029c1.673,3.641,4.32,6.761,7.374,9.323
		c6.606,5.542,15.139,8.868,23.729,9.391c10.757,0.655,21.42-2.606,30.826-7.647c2.378-1.274,4.693-2.664,6.938-4.159
		c2.294-1.527,4.48-3.2,6.711-4.815c2.344-1.697,4.696-3.385,6.999-5.137c2.203-1.676,4.312-3.459,6.453-5.211
		c1.375-1.125,2.723-2.287,4.167-3.324c0.993-0.714,2.108-1.513,3.363-1.648c1.205-0.129,2.171,0.579,2.855,1.494
		c2.986-2.803,4.479-4.407,4.479-4.407S186.473,251.722,184.248,253.434z"/>
	<path style="fill:#FDD1AB;" d="M61.296,166.831c0,0,5.858,26.154,28.665,41.428C76.988,203.865,63.597,185.244,61.296,166.831z"/>
	<g>
		
			<radialGradient id="SVGID_00000062183389557818030470000016662259659673623709_" cx="1036.4073" cy="176.585" r="21.3391" gradientTransform="matrix(-1 0 0 1 1119.4825 0)" gradientUnits="userSpaceOnUse">
			<stop  offset="0" style="stop-color:#F37422"/>
			<stop  offset="1" style="stop-color:#FFFFFF"/>
		</radialGradient>
		<path style="opacity:0.51;fill:url(#SVGID_00000062183389557818030470000016662259659673623709_);" d="M72.609,158.602
			c1.044-0.416,2.125-0.708,3.223-0.888c-0.627,0.247-1.246,0.518-1.854,0.818c-0.324,0.159-0.04,0.642,0.283,0.484
			c1.131-0.557,2.3-1.03,3.504-1.404c0.12-0.037,0.241-0.069,0.362-0.104c0.563-0.009,1.128,0.008,1.692,0.059
			c0.304,0.027,0.345-0.366,0.137-0.509c3.826-0.767,7.811-0.51,11.514,0.797c4.047,1.428,7.693,4.058,10.291,7.478
			c2.466,3.245,4.005,7.226,3.95,11.331c-0.06,4.534-2.132,8.709-5.269,11.915c-3.357,3.431-7.657,5.788-12.286,6.997
			c-4.365,1.141-9.051,1.322-13.45,0.256c-4.208-1.02-8.146-3.267-10.74-6.792c-2.825-3.838-3.935-8.784-3.398-13.484
			c0.551-4.827,2.741-9.537,6.167-12.992C68.408,160.879,70.397,159.484,72.609,158.602z"/>
		<path style="opacity:0.49;fill:#FDD1AB;" d="M69.357,164.888c-0.541,0.541-0.723,1.237-0.406,1.554
			c0.317,0.317,1.013,0.135,1.554-0.406c0.541-0.541,0.723-1.237,0.407-1.554C70.594,164.164,69.898,164.346,69.357,164.888z"/>
	</g>
	<g>
		
			<radialGradient id="SVGID_00000021103381751128851470000007830667538773655711_" cx="922.3414" cy="165.548" r="21.339" gradientTransform="matrix(1 0 0 1 -764.3091 0)" gradientUnits="userSpaceOnUse">
			<stop  offset="0" style="stop-color:#F37422"/>
			<stop  offset="1" style="stop-color:#FFFFFF"/>
		</radialGradient>
		<path style="opacity:0.51;fill:url(#SVGID_00000021103381751128851470000007830667538773655711_);" d="M168.499,147.565
			c-1.044-0.416-2.124-0.708-3.223-0.888c0.627,0.247,1.247,0.518,1.854,0.818c0.324,0.159,0.04,0.642-0.283,0.484
			c-1.131-0.557-2.3-1.03-3.504-1.404c-0.12-0.037-0.241-0.069-0.362-0.104c-0.563-0.009-1.128,0.008-1.692,0.059
			c-0.304,0.027-0.345-0.366-0.137-0.508c-3.826-0.767-7.811-0.51-11.514,0.797c-4.047,1.428-7.693,4.059-10.291,7.478
			c-2.466,3.245-4.005,7.226-3.95,11.331c0.06,4.535,2.132,8.709,5.269,11.915c3.357,3.431,7.657,5.788,12.286,6.997
			c4.365,1.141,9.051,1.322,13.45,0.256c4.208-1.02,8.146-3.267,10.74-6.792c2.825-3.838,3.935-8.784,3.398-13.484
			c-0.551-4.826-2.741-9.536-6.167-12.992C172.7,149.842,170.71,148.447,168.499,147.565z"/>
		<path style="opacity:0.49;fill:#FDD1AB;" d="M171.751,153.851c0.541,0.542,0.723,1.237,0.406,1.554
			c-0.317,0.317-1.013,0.135-1.554-0.406c-0.541-0.541-0.723-1.237-0.406-1.554C170.514,153.127,171.209,153.309,171.751,153.851z"
			/>
	</g>
	<g>
		<g>
			<path style="fill:#F08D56;" d="M81.247,63.579c0,0,22.2,44.826,77.912,52.297c9.179,7.258,23.907,8.752,23.907,8.752
				s12.381,12.594,26.469-0.854c5.977-1.281,8.538-5.55,8.538-5.55s-7.875,3.797-15.73,3.204
				c13.042-6.225,15.387-36.656,10.441-50.204c0,0,10.322-5.161,7.311-17.418c-3.011-12.257-10.107-16.343-20.214-18.279
				c0,0-4.408-9.569-15.698-8.924c-10.645-14.515-43.869-28.386-67.416-16.451c0,0-21.934-7.096-50.965,14.193
				C49.352,30.473,42.279,37.56,41.091,44.217c-4.874,3.804-5.469,6.776-5.469,6.776S12.15,62.192,18.386,90.578
				c-5.591,9.892-3.871,25.805,0.43,31.611c-0.215,10.967,7.312,18.924,10.752,21.934c2.15,12.903,18.709,17.419,29.891,17.634
				c-0.357-0.534-0.617-5.473-5.166-18.471C49.744,130.289,33.952,82.491,81.247,63.579z"/>
			<path style="fill:#BC5626;" d="M59.459,162c-0.002,0-0.003,0-0.005,0c-10.097-0.194-27.774-4.153-30.111-17.75
				c-3.357-2.954-10.951-10.883-10.771-21.982c-4.173-5.735-6.18-21.476-0.443-31.728c-3.203-14.708,1.68-24.729,6.348-30.55
				c4.695-5.856,10.121-8.749,10.937-9.163c0.164-0.602,1.114-3.333,5.455-6.744c1.402-7.523,9.981-14.421,24.817-19.954
				C80.716,13.115,93.809,9.835,102.149,9.024c8.398-0.821,13.814,0.639,14.596,0.868c23.45-11.812,56.543,1.596,67.557,16.462
				c10.574-0.526,15.192,7.873,15.745,8.958c8.608,1.665,17.004,5.077,20.286,18.436c2.376,9.673-3.595,15.667-7.247,17.595
				c4.591,12.934,2.883,42.669-9.847,49.892c7.39,0.251,14.653-3.192,14.729-3.229c0.095-0.045,0.212-0.024,0.284,0.055
				c0.072,0.079,0.084,0.196,0.029,0.288c-0.107,0.178-2.666,4.343-8.629,5.648c-13.563,12.892-25.711,1.807-26.697,0.864
				c-1.22-0.139-15.125-1.855-23.896-8.752c-28.81-3.88-48.483-17.914-59.918-29.008C87.649,75.95,81.949,65.453,81.132,63.886
				C61.25,71.903,50.295,85.96,48.569,105.672c-1.437,16.42,4.124,32.312,5.953,37.534c3.363,9.607,4.394,14.865,4.836,17.111
				c0.132,0.674,0.237,1.206,0.303,1.306c0.05,0.075,0.054,0.172,0.011,0.251C59.63,161.952,59.547,162,59.459,162z M107.155,9.261
				c-1.512,0-3.18,0.071-4.99,0.248c-8.277,0.81-21.279,4.076-36.219,15.031c-0.018,0.013-0.038,0.024-0.059,0.032
				C51.14,30.066,42.648,36.874,41.329,44.259c-0.01,0.059-0.043,0.112-0.089,0.149c-4.727,3.69-5.375,6.604-5.38,6.633
				c-0.015,0.074-0.064,0.138-0.134,0.17c-0.058,0.028-5.89,2.858-10.884,9.097c-4.603,5.749-9.419,15.658-6.22,30.217
				c0.013,0.058,0.004,0.119-0.026,0.172c-3.883,6.87-5.454,23.426,0.414,31.348c0.031,0.043,0.048,0.096,0.047,0.149
				c-0.216,11.011,7.39,18.877,10.67,21.747c0.042,0.037,0.07,0.087,0.08,0.143c2.199,13.196,19.283,17.147,29.304,17.423
				c-0.062-0.237-0.129-0.583-0.23-1.097c-0.439-2.235-1.466-7.47-4.818-17.044c-1.836-5.246-7.424-21.212-5.977-37.737
				c1.749-19.977,12.875-34.2,33.071-42.276c0.116-0.047,0.251,0.003,0.307,0.118c0.056,0.112,5.684,11.32,18.029,23.294
				c11.39,11.046,30.993,25.021,59.698,28.87c0.044,0.006,0.084,0.023,0.118,0.05c9.016,7.129,23.634,8.686,23.781,8.701
				c0.056,0.006,0.109,0.031,0.149,0.071c0.498,0.507,12.381,12.262,26.129-0.859c0.032-0.031,0.073-0.053,0.117-0.062
				c4.326-0.927,6.849-3.476,7.861-4.727c-2.243,0.943-8.677,3.34-15.02,2.86c-0.11-0.008-0.2-0.09-0.221-0.197
				c-0.02-0.108,0.035-0.216,0.135-0.263c5.717-2.729,10.029-10.811,11.831-22.175c1.584-9.988,0.99-20.871-1.513-27.727
				c-0.043-0.116,0.008-0.245,0.118-0.3c0.101-0.051,10.112-5.224,7.184-17.144c-3.05-12.422-10.211-16.219-20.023-18.098
				c-0.077-0.015-0.142-0.066-0.174-0.137c-0.045-0.094-4.485-9.401-15.464-8.784c-0.075,0.009-0.161-0.032-0.209-0.099
				c-5.456-7.439-16.47-14.358-28.745-18.056c-14.181-4.273-27.807-3.676-38.367,1.678c-0.057,0.028-0.123,0.034-0.185,0.014
				C116.649,10.369,113.132,9.261,107.155,9.261z"/>
		</g>
		<g>
			<path style="fill:#BC5626;" d="M180.745,111.384c-3.425-1.019-6.669-2.265-9.741-4.114c-3.091-1.86-5.928-4.11-8.587-6.541
				c-5.432-4.967-10.235-10.588-15.432-15.795c-4.966-4.977-10.144-9.753-15.654-14.125c-5.468-4.339-11.27-8.278-17.446-11.541
				c-3.094-1.635-6.28-3.127-9.561-4.348c-3.516-1.308-7.236-2.287-11.016-2.123c-0.94,0.041-1.871,0.172-2.792,0.364
				c-0.088,0.018-0.265,0.284-0.128,0.262c3.786-0.618,7.639,0.014,11.261,1.169c3.504,1.118,6.894,2.659,10.172,4.318
				c6.198,3.136,12.027,6.965,17.517,11.212c5.534,4.281,10.729,8.986,15.701,13.903c5.196,5.139,9.988,10.676,15.235,15.76
				c5.059,4.901,10.82,9.346,17.609,11.517c0.83,0.265,1.663,0.461,2.523,0.601C180.601,111.935,180.987,111.457,180.745,111.384z"
				/>
			<path style="fill:#BC5626;" d="M209.187,57.348c-2.518-3.249-6.454-5.597-10.642-5.522c-1.863,0.033-4.597,1.048-4.224,3.397
				c0.02,0.125,0.285-0.131,0.284-0.221c-0.003-0.384,0.074-0.705,0.201-0.983c0.538,2.021,0.949,4.022,0.92,6.128
				c-0.03,2.15-0.432,4.302-1.173,6.32c-1.551,4.224-4.507,7.701-8.498,9.799c-4.337,2.281-9.455,3.164-14.321,3.131
				c-4.609-0.032-9.192-0.981-13.473-2.677c-4.804-1.904-9.195-4.81-12.834-8.476c-0.08-0.081-0.319,0.183-0.239,0.275
				c6.372,7.251,15.893,11.323,25.479,11.621c5.003,0.155,10.221-0.691,14.747-2.889c4.148-2.014,7.397-5.374,9.279-9.585
				c1.003-2.243,1.599-4.665,1.744-7.118c0.142-2.397-0.085-5.018-1.097-7.222c1.077-0.89,3.098-0.839,4.38-0.646
				c1.819,0.274,3.557,0.976,5.091,1.985c3.252,2.138,5.413,5.489,6.592,9.151c0.705,2.187,1.022,4.46,1.323,6.731
				c0.05,0.377,0.591-0.138,0.591-0.37C213.318,65.691,211.956,60.922,209.187,57.348z"/>
			<path style="fill:#BC5626;" d="M212.274,72.424c-0.605,2.422-1.107,4.837-1.965,7.19c-0.845,2.318-1.909,4.557-3.231,6.642
				c-2.424,3.821-5.749,7.094-9.767,9.213c-8.907,4.696-19.541,2.228-27.733-2.789c-4.67-2.86-8.804-6.469-12.712-10.284
				c-0.107-0.104-0.414,0.236-0.303,0.349c7.059,7.211,15.257,14.05,25.535,15.687c4.824,0.768,9.845,0.302,14.287-1.804
				c4.129-1.958,7.623-5.076,10.28-8.773c1.641-2.283,2.96-4.799,3.987-7.414c1.029-2.62,1.943-5.455,2.263-8.261
				C212.974,71.67,212.339,72.163,212.274,72.424z"/>
			<path style="fill:#BC5626;" d="M210.237,85.023c-1.548,2.613-2.938,5.305-4.649,7.822c-1.714,2.521-3.654,4.911-5.89,6.989
				c-4.342,4.035-9.837,6.763-15.81,7.125c-3.311,0.2-6.66-0.376-9.626-1.888c-0.147-0.075-0.432,0.286-0.308,0.355
				c5.333,2.97,11.777,2.727,17.332,0.495c5.773-2.319,10.396-6.729,13.996-11.711c2.057-2.847,3.992-5.936,5.358-9.178
				C210.795,84.66,210.353,84.827,210.237,85.023z"/>
			<path style="fill:#BC5626;" d="M212.287,80.841c-0.008-0.119-0.211,0.06-0.207,0.141c0.338,7.263-1.962,14.644-6.3,20.472
				c-1.254,1.684-2.691,3.243-4.248,4.651c-0.206,0.186-0.197,0.573,0.112,0.308c5.618-4.821,9.38-11.84,10.417-19.16
				C212.361,85.13,212.431,82.98,212.287,80.841z"/>
			<path style="fill:#BC5626;" d="M202.156,121.091c-2.514-0.442-5.024-0.907-7.475-1.632c-2.42-0.715-4.774-1.637-7.078-2.664
				c1.575-0.28,3.139-0.626,4.682-1.068c1.421-0.406,2.821-0.885,4.19-1.441c1.389-0.565,2.838-1.174,4.074-2.033
				c0.112-0.078,0.39-0.571,0.063-0.438c-1.216,0.493-2.371,1.135-3.584,1.641c-1.196,0.499-2.417,0.937-3.655,1.318
				c-2.564,0.79-5.203,1.333-7.862,1.69c-5.644,0.758-11.374,0.618-17.034,0.113c-3.279-0.292-6.543-0.73-9.822-1.024
				c-0.073-0.006-0.227,0.19-0.14,0.208c5.721,1.149,11.639,1.795,17.473,1.893c3.785,0.063,7.582-0.167,11.311-0.806
				c-0.049,0.066-0.077,0.141-0.036,0.163c4.439,2.438,9.598,4.081,14.661,4.431C202.051,121.45,202.31,121.118,202.156,121.091z"/>
			<path style="fill:#BC5626;" d="M148.853,77.623c-4.405-4.936-9.169-9.539-14.269-13.754c-2.924-2.417-5.965-4.684-9.096-6.826
				c-0.083-0.056-0.274,0.174-0.199,0.229c10.764,7.805,20.453,17.097,28.621,27.591c2.281,2.931,4.404,5.978,6.541,9.014
				c0.101,0.144,0.501-0.263,0.41-0.413C157.432,87.806,153.253,82.554,148.853,77.623z"/>
			<path style="fill:#BC5626;" d="M200.195,35.49c-3.166-0.82-6.31,1.702-7.604,4.418c-1.588,3.333-0.848,7.764,1.267,10.703
				c0.092,0.128,0.406-0.229,0.352-0.355c-1.337-3.102-2.572-6.478-1.357-9.843c1.072-2.968,4.011-4.907,7.153-4.641
				C200.103,35.779,200.321,35.522,200.195,35.49z"/>
			<path style="fill:#BC5626;" d="M212.066,50.14c-2.484-4.425-7.96-8.882-13.026-5.542c-2.276,1.5-3.806,4.052-4.273,6.713
				c-0.023,0.133,0.236-0.059,0.253-0.143c0.499-2.443,1.891-4.767,4.019-6.122c2.355-1.5,5.094-1.201,7.407,0.232
				c4.607,2.855,6.84,8.345,7.422,13.53c0.392,3.493,0.082,6.977-0.125,10.47c-0.021,0.351,0.568-0.098,0.595-0.303
				C215.172,62.744,215.232,55.779,212.066,50.14z"/>
			<path style="fill:#BC5626;" d="M181.568,38.398c-4.289-4.04-9.229-7.352-14.607-9.762c-3.075-1.378-6.281-2.452-9.566-3.205
				c-0.074-0.017-0.217,0.181-0.136,0.201c11.392,2.805,21.682,9.617,28.956,18.794c2.076,2.619,3.87,5.448,5.498,8.364
				c0.081,0.146,0.384-0.163,0.325-0.288C189.55,47.185,185.83,42.412,181.568,38.398z"/>
			<path style="fill:#BC5626;" d="M176.668,30.959c-2.198-1.596-4.558-2.971-7.011-4.134c-0.099-0.047-0.287,0.201-0.209,0.24
				c8.497,4.261,15.61,11.224,20.123,19.584c1.27,2.352,2.324,4.822,3.228,7.336c0.069,0.192,0.462-0.187,0.41-0.36
				C190.475,44.549,184.295,36.496,176.668,30.959z"/>
			<path style="fill:#BC5626;" d="M183.348,25.151c-0.056-0.067-0.251,0.144-0.194,0.223c1.626,2.248,3.002,4.703,4.05,7.272
				c1.025,2.513,1.669,5.139,2.122,7.81c0.034,0.201,0.473-0.179,0.457-0.346C189.256,34.65,186.875,29.326,183.348,25.151z"/>
			<path style="fill:#BC5626;" d="M85.484,57.712c-1.02-2.183-3.065-3.75-5.174-4.814c-2.279-1.151-4.804-1.765-7.332-2.037
				c-5.887-0.634-12.029,0.311-17.624,2.167C44.332,56.685,35.57,64.583,28.666,73.707c-3.803,5.026-7.081,10.404-10.109,15.926
				c-0.081,0.148,0.119,0.038,0.16-0.033c5.542-9.482,11.624-18.959,19.957-26.251c8.773-7.677,20.181-12.393,31.956-11.84
				c2.751,0.129,5.54,0.626,8.088,1.695c2.597,1.09,4.547,2.813,6.259,5.014C85.127,58.411,85.572,57.9,85.484,57.712z"/>
			<path style="fill:#BC5626;" d="M82.311,56.195c-3.614,0.23-7.185,1.159-10.596,2.346c-3.461,1.204-6.797,2.763-9.967,4.599
				c-6.386,3.699-12.042,8.555-16.973,14.026c-4.926,5.465-9.288,11.553-12.768,18.039c-3.556,6.628-6.002,13.843-6.448,21.387
				c-0.487,8.243,1.163,16.464,3.342,24.373c0.265,0.963,0.557,1.917,0.85,2.872c0.031,0.102,0.261-0.113,0.236-0.211
				c-2.005-7.812-3.908-15.691-3.98-23.803c-0.067-7.638,1.788-14.977,5.088-21.841c3.167-6.588,7.377-12.734,12.091-18.308
				c4.679-5.533,10.059-10.513,16.164-14.441c6.093-3.92,12.879-6.753,20.014-8.073c0.911-0.169,1.821-0.348,2.734-0.507
				C82.253,56.625,82.575,56.178,82.311,56.195z"/>
			<path style="fill:#BC5626;" d="M117.221,9.657c-1.351,1.174-2.71,2.313-4.006,3.552c-1.256,1.2-2.48,2.433-3.676,3.693
				c-2.461,2.592-4.762,5.338-6.875,8.221c-4.286,5.85-7.234,12.383-10.31,18.91c-0.885,1.878-1.791,3.747-2.774,5.576
				c-0.984,1.831-2.091,3.585-3.146,5.374c-0.245,0.416,0.16,0.55,0.422,0.213c2.166-2.776,3.76-6.029,5.297-9.182
				c1.579-3.24,3.034-6.539,4.628-9.771c3.19-6.47,7.245-12.338,12.053-17.71c1.319-1.473,2.673-2.913,4.068-4.315
				c1.449-1.456,2.893-2.941,4.392-4.345C117.436,9.74,117.444,9.464,117.221,9.657z"/>
			<path style="fill:#BC5626;" d="M50.319,44.584c-5.666,1.095-11.108,3.299-15.807,6.666c-0.154,0.11-0.313,0.564-0.007,0.364
				c4.774-3.104,10.031-5.421,15.611-6.599C50.271,44.982,50.543,44.54,50.319,44.584z"/>
			<path style="fill:#BC5626;" d="M91.478,43.89c-5.122-3.067-10.67-5.082-16.594-5.898c-5.915-0.815-11.971-0.463-17.75,1.035
				c-3.261,0.845-6.386,2.092-9.328,3.732c-0.153,0.086-0.372,0.614-0.064,0.462c10.559-5.243,22.833-6.353,34.13-2.929
				c3.214,0.974,6.389,2.261,9.289,3.965C91.308,44.343,91.605,43.966,91.478,43.89z"/>
			<path style="fill:#BC5626;" d="M93.895,36.802c-9.353-4.145-20.019-5.085-29.967-2.689c-2.826,0.681-5.575,1.626-8.226,2.817
				c-0.163,0.073-0.422,0.58-0.118,0.451c9.327-3.962,19.917-4.873,29.804-2.692c2.8,0.618,5.559,1.468,8.207,2.568
				C93.758,37.326,94.095,36.891,93.895,36.802z"/>
			<path style="fill:#BC5626;" d="M90.933,33.654c-7.695-5.195-17.885-6.267-26.681-3.552c-2.492,0.769-4.88,1.879-7.095,3.255
				c-0.104,0.065-0.209,0.349-0.011,0.229c7.794-4.754,17.709-5.65,26.334-2.782c2.464,0.82,4.831,1.956,7.029,3.336
				C90.707,34.264,91.111,33.775,90.933,33.654z"/>
			<path style="fill:#BC5626;" d="M99.834,21.783c-9.525-1.595-19.379-1.127-28.764,1.11c-2.652,0.632-5.213,1.474-7.773,2.4
				c-0.097,0.035-0.265,0.328-0.078,0.266c8.963-2.966,18.575-4.307,28.003-3.95c2.764,0.105,5.528,0.338,8.27,0.699
				C99.701,22.336,100.066,21.822,99.834,21.783z"/>
			<path style="fill:#BC5626;" d="M169.557,17.003c-7.242-5.576-16.553-7.574-25.538-7.688c-4.551-0.057-9.112,0.359-13.59,1.167
				c-4.266,0.769-8.5,1.92-12.45,3.727c-4.353,1.991-8.312,4.782-11.316,8.538c-0.142,0.178-0.013,0.298,0.136,0.118
				c5.573-6.732,14.14-10.007,22.51-11.594c8.61-1.632,17.726-1.951,26.287,0.126c4.846,1.175,9.487,3.189,13.593,6.028
				C169.35,17.537,169.706,17.118,169.557,17.003z"/>
			<path style="fill:#BC5626;" d="M183.097,27.769c-5.094-5.452-11.574-9.467-18.582-11.977c-0.13-0.047-0.397,0.303-0.24,0.362
				c6.949,2.617,13.168,6.85,18.434,12.061C182.85,28.354,183.24,27.922,183.097,27.769z"/>
			<path style="fill:#BC5626;" d="M143.029,102.307c-8.61-3.326-17.803-9.807-24.171-16.439c-3.436-3.578-6.552-7.452-9.487-11.447
				c-2.901-3.949-5.54-8.072-8.362-12.074c-2.909-4.125-6.848-8.057-12.274-7.792c-0.07,0.004-0.191,0.208-0.121,0.207
				c4.773-0.073,8.585,3.596,11.229,7.172c1.46,1.975,2.772,4.059,4.147,6.093c1.361,2.012,2.74,4.011,4.159,5.983
				c5.56,7.727,11.801,15.093,19.524,20.745c4.084,2.989,8.514,5.466,13.347,7.007C141.208,101.822,143.254,102.394,143.029,102.307
				z"/>
			<path style="fill:#BC5626;" d="M119.283,92.629c-9.267-6.531-19.234-16.847-24.675-26.834c-1.515-2.781-2.828-5.667-3.936-8.633
				c-0.046-0.124-0.322,0.134-0.281,0.25c3.805,10.66,10.254,20.354,18.708,27.891c2.403,2.142,4.945,4.081,7.673,5.79
				C116.957,91.207,119.451,92.747,119.283,92.629z"/>
			<path style="fill:#BC5626;" d="M46.176,94.209c3.512-5.544,7.753-10.598,12.001-15.585c0.125-0.147,0.018-0.243-0.112-0.098
				c-7.762,8.64-15.435,17.879-18.88,29.179c-3.146,10.319-2.622,21.525,0.692,31.734c1.858,5.723,4.562,11.261,8.257,16.026
				c0.178,0.229,0.766-0.382,0.614-0.61c-2.957-4.42-5.515-9.088-7.349-14.088c-1.835-5.003-2.985-10.258-3.349-15.576
				c-0.356-5.205,0.041-10.468,1.293-15.537C40.703,104.144,43.148,98.99,46.176,94.209z"/>
			<path style="fill:#BC5626;" d="M57.797,154.417c-5.895-4.212-10.455-9.933-12.765-16.842c-0.645-1.929-1.093-3.917-1.343-5.935
				c-0.012-0.096-0.259,0.103-0.25,0.196c0.704,7.213,3.937,14.069,9.047,19.209c1.477,1.486,3.083,2.786,4.873,3.875
				C57.563,155.044,57.983,154.55,57.797,154.417z"/>
			<path style="fill:#BC5626;" d="M180.63,65.702c-8.776-8.084-19.321-14.246-30.506-18.351c-11.211-4.115-23.571-6.461-35.522-5.2
				c-6.562,0.692-13.058,2.518-18.733,5.941c-0.055,0.034-0.155,0.249-0.035,0.182c10.646-5.861,23.112-6.784,34.966-5.093
				c11.648,1.662,23,5.645,33.22,11.458c5.769,3.282,11.192,7.182,16.227,11.502C180.399,66.273,180.779,65.84,180.63,65.702z"/>
			<path style="fill:#BC5626;" d="M177.074,48.198c-7.291-7.136-16.496-12.229-26.327-14.9c-10.231-2.779-21.102-2.787-31.358-0.122
				c-5.76,1.497-11.272,3.813-16.342,6.93c-0.095,0.058-0.195,0.315-0.011,0.209c9.222-5.356,19.752-8.331,30.418-8.517
				c10.246-0.179,20.464,2.335,29.516,7.123c4.967,2.627,9.581,5.921,13.706,9.735C176.828,48.795,177.227,48.348,177.074,48.198z"
				/>
		</g>
		<g>
			<path style="opacity:0.55;fill:#CB5530;" d="M202.344,121.428c13.042-6.225,15.387-36.656,10.441-50.204
				c0,0,10.322-5.161,7.311-17.418c-3.01-12.257-10.107-16.343-20.214-18.279c0,0-4.408-9.569-15.698-8.924
				c-0.29-0.395-0.603-0.789-0.925-1.182c0.22,2.757-0.933,4.156-3.89,2.087c-6.562-4.594-15.421-5.906-15.421-5.906
				c11.484,4.922,17.062,13.453,17.062,13.453s-15.421-9.515-19.359-8.531c37.405,16.406,30.186,40.358,10.172,31.827
				c12.796,18.046-10.5,20.999-26.249,7.547c-20.999-19.687-41.014-17.062-36.749-19.687c4.265-2.625,32.155,0.656,52.17,5.906
				c-22.64-14.765-50.529-12.468-47.576-14.437c2.953-1.969,12.14-6.562,41.998-3.281c-16.734-8.531-43.311-8.531-40.358-13.125
				c2.953-4.594,13.453-9.515,35.764-11.812c-18.046-2.297-28.874,3.281-28.546,0.984c0.743-1.485,4.333-3.063,8.57-4.453
				c-4.892,0.588-9.656,1.918-14.079,4.16c0,0-10.569-3.409-26.737,1.614c6.475-1.185,13.149-1.344,17.266,1.481
				c1.788,0.993-21.495,6.582-27.301,8.195c18.064-0.968,18.064,7.096,18.064,7.096s-22.58-5.806-36.45,1.935
				c18.386-3.226,28.901,3.667,28.901,3.667s-21.04-3.656-34.809,2.79c0,0,25.262-5.489,31.713,4.188c0,0-22.52-8.701-40.261,2.267
				c16.773-4.839,23.81-2.267,34.778,2.894c3.548,2.581-39.353-8.709-58.384,33.224c19.677-20.322,31.289-26.45,42.256-25.483
				c-19.999,10.967-38.876,27.727-40.244,62.571c9.922-26.766,20.89-43.54,37.663-50.959c-25.805,28.386-37.095,53.868-22.58,81.931
				c5.318,8.296,1.937,10.417-3.202,8.033c6.335,4.283,15.18,6.028,22.018,6.16c-0.357-0.534-0.617-5.473-5.166-18.471
				c-4.549-12.998-20.341-60.795,26.954-79.708c0,0,22.2,44.826,77.912,52.297c9.179,7.258,23.907,8.752,23.907,8.752
				s12.381,12.594,26.469-0.854c5.977-1.281,8.538-5.55,8.538-5.55S210.199,122.021,202.344,121.428z"/>
		</g>
		<path style="fill:#F08D56;" d="M160.314,81.116c0,0,32.902,13.548,39.675-22.257c0.968-7.419,17.741,1.613,7.096,21.289
			C196.442,99.825,175.798,94.019,160.314,81.116z"/>
		<path style="fill:#F08D56;" d="M101.608,57.246c0,0,23.87,10.645,42.256,30.966c13.225,13.548,25.022,22.544,36.542,23.691
			C162.25,114.985,117.413,94.019,101.608,57.246z"/>
		<path style="fill:#F08D56;" d="M97.737,62.73c0,0,16.451,30.644,48.707,44.191C126.445,105.309,105.801,85.632,97.737,62.73z"/>
		<path style="fill:#F08D56;" d="M198.046,49.506c0,0,9.368-3.123,14.572,10.617C213.243,50.964,203.459,38.473,198.046,49.506z"/>
		<path style="fill:#F08D56;" d="M194.924,46.592c0,0,1.874-5.621,9.576-4.163c7.702,1.457,11.033,10.201,11.658,20.193
			c6.245-4.372,2.082-18.528-5.204-21.858C203.667,37.432,195.548,35.559,194.924,46.592z"/>
		<path style="fill:#F08D56;" d="M165.153,93.051c0,0,18.386,15.806,37.095,1.29C192.248,105.309,177.41,111.437,165.153,93.051z"/>
		<path style="fill:#F08D56;" d="M184.829,110.469c0,0,16.451-1.29,24.192-19.999C205.151,104.341,201.925,110.792,184.829,110.469z
			"/>
	</g>
	<path style="fill:#F08D56;" d="M194.872,212.813c0,0-1.373,30.542,27.454,43.24C206.54,259.827,188.009,245.414,194.872,212.813z"
		/>
	<path style="fill:#F08D56;" d="M39.998,69.504c0,0-18.386,19.999-16.773,49.998C18.386,104.341,16.773,85.955,39.998,69.504z"/>
	<path style="fill:#F08D56;" d="M65.477,44.605c0,0-38.644,6.744-45.024,33.905C24.645,58.277,38.134,44.423,65.477,44.605z"/>
	<path style="fill:#F08D56;" d="M46.987,82.621c0,0-23.655,20.429-12.042,62.147C26.128,128.426,22.902,102.62,46.987,82.621z"/>
	<path style="fill:#F08D56;" d="M113.22,66.601c0,0,21.934,27.741,45.804,37.095C138.057,103.051,116.768,78.858,113.22,66.601z"/>
	<path style="fill:#F08D56;" d="M171.662,84.407c0,0,23.612,5.199,29.678-21.879c0,0,1.083,12.781-5.632,17.764
		c10.615-4.333,9.965-13.864,9.965-13.864S208.056,96.971,171.662,84.407z"/>
	<path style="fill:#F08D56;" d="M122.14,22.783c0,0,27.042,2.359,47.551,15.79c-3.448-3.63-10.708-8.53-14.701-10.527
		c-3.993-1.996,8.349,2.541,2.904-0.363c-5.445-2.904,5.808-3.993-0.726-5.989c-6.534-1.996-2.541-4.9,11.253-1.089
		c-8.167-5.263-22.505-10.163-35.572-6.897c13.612,0,13.43,3.993,8.53,3.63c-4.9-0.363,7.623,4.719,0.363,3.448
		c-7.26-1.27,8.167,3.811-3.085,1.452C127.403,19.879,122.14,22.783,122.14,22.783z"/>
	<path style="fill:#F08D56;" d="M126.896,38.458c0,0,20.734,1.208,40.462,15.903c0,0-3.221-4.831-7.851-8.253
		c-4.63-3.422,6.24,1.409,2.818-1.812s1.409-1.409,7.65,2.617c-5.838-9.059-17.916-12.28-28.988-12.682
		c10.065,2.013,7.046,4.429,4.429,3.825c-2.617-0.604,10.87,5.838,2.013,2.818C138.572,37.854,126.896,38.458,126.896,38.458z"/>
	<path style="fill:#F08D56;" d="M233.313,129.253c0,0,0.916,19.005-9.388,40.529c-6.411,12.823-8.93,25.187-8.93,25.187
		s-1.832-5.495,2.977-16.944c4.809-11.449-2.977,2.061-2.977-3.664c0-5.724-6.64,3.435-9.159,12.823
		c3.893-19.005,6.411-25.645,14.196-36.407c7.785-10.762,8.701-20.608,9.388-22.439c-1.145,10.991-6.64,21.753-4.122,18.318
		c2.519-3.435,0.458,8.243,3.206,2.748C231.252,143.907,233.313,129.253,233.313,129.253z"/>
	<path style="fill:#F08D56;" d="M233.964,195.743c0,0,4.574,5.228,18.733,12.198c14.159,6.971,23.961,18.298,26.575,26.357
		c-6.535-9.367-11.727-15.189-27.932-23.444C234.245,202.146,233.964,195.743,233.964,195.743z"/>
	<path style="fill:#F08D56;" d="M47.122,220.961c0,0-15.547,16.96-10.247,36.747C29.279,246.578,32.812,229.264,47.122,220.961z"/>
	<path style="fill:#F08D56;" d="M212.236,208.581c0,0-3.046,17.766,21.319,32.994C220.611,240.306,205.383,226.347,212.236,208.581z
		"/>
</g>
</svg>
